<svg version="1.1" id="Layer_1" xmlns="http://www.w3.org/2000/svg" xmlns:xlink="http://www.w3.org/1999/xlink" x="0px" y="0px"
	 width="100%" viewBox="0 0 2000 2000" enable-background="new 0 0 2000 2000" xml:space="preserve">
<path fill="#000000" opacity="1.000000" stroke="none" 
	d="
M1119.000000,2001.000000 
	C746.000000,2001.000000 373.500000,2001.000000 1.000000,2001.000000 
	C1.000000,1334.333374 1.000000,667.666687 1.000000,1.000000 
	C667.666687,1.000000 1334.333374,1.000000 2001.000000,1.000000 
	C2001.000000,667.666687 2001.000000,1334.333374 2001.000000,2001.000000 
	C1707.166626,2001.000000 1413.333374,2001.000000 1119.000000,2001.000000 
M417.401337,1653.003540 
	C418.637085,1653.335449 419.855530,1653.769531 421.111420,1653.982422 
	C429.574524,1655.416748 438.049774,1656.779785 446.513214,1658.212402 
	C459.765045,1660.455444 472.973053,1662.993774 486.269318,1664.927979 
	C499.967102,1666.920776 513.757507,1668.268555 527.490662,1670.029297 
	C545.081421,1672.284546 562.637085,1674.821899 580.242188,1676.953735 
	C595.802979,1678.837891 611.399963,1680.443481 627.001038,1681.966919 
	C642.159424,1683.447388 657.338806,1684.719482 672.517212,1685.984985 
	C685.433472,1687.062012 698.355774,1688.078247 711.285400,1688.979126 
	C726.868286,1690.064819 742.459412,1691.034790 758.051025,1691.988892 
	C769.884583,1692.713013 781.720886,1693.408447 793.562439,1693.982178 
	C808.895630,1694.724976 824.234558,1695.355103 839.572632,1695.993408 
	C848.655945,1696.371460 857.740662,1696.732788 866.827942,1696.992554 
	C880.411377,1697.380981 893.996094,1697.759888 907.583008,1697.976807 
	C917.080505,1698.128540 926.582947,1697.944580 936.081848,1698.042847 
	C938.317505,1698.065918 940.707275,1698.209473 942.754944,1699.000000 
	C958.763672,1705.181152 972.357483,1714.553833 983.600647,1727.824219 
	C992.027405,1737.770508 998.596741,1748.693604 1002.638550,1760.738647 
	C1006.156372,1771.221924 1007.296448,1782.503174 1009.334106,1792.667969 
	C1009.414551,1792.232178 1009.838257,1790.645752 1009.980469,1789.034546 
	C1010.398682,1784.296265 1010.042114,1779.384888 1011.164185,1774.830688 
	C1017.910889,1747.447876 1031.484375,1724.532349 1055.660156,1708.852051 
	C1066.289795,1701.957642 1077.172974,1696.645752 1090.651855,1697.777710 
	C1100.307495,1698.588501 1110.135132,1697.282959 1119.888672,1697.012451 
	C1133.639038,1696.630981 1147.393066,1696.380615 1161.142944,1695.981934 
	C1169.230835,1695.747559 1177.313965,1695.343384 1185.398560,1694.999023 
	C1200.902710,1694.338745 1216.409790,1693.738281 1231.908813,1692.975952 
	C1242.918457,1692.434570 1253.915283,1691.635376 1264.921021,1691.009766 
	C1283.007935,1689.981689 1301.100830,1689.058838 1319.184326,1687.975342 
	C1328.029907,1687.445435 1336.866943,1686.736694 1345.695190,1685.962646 
	C1360.040161,1684.704956 1374.373169,1683.313232 1388.713745,1682.005371 
	C1396.544922,1681.291138 1404.394775,1680.757935 1412.212158,1679.919556 
	C1423.395386,1678.720459 1434.551758,1677.274048 1445.728882,1676.015869 
	C1452.551392,1675.247925 1459.410034,1674.783325 1466.218506,1673.915283 
	C1475.401367,1672.744629 1484.544556,1671.267334 1493.717651,1670.015015 
	C1501.943359,1668.891968 1510.207153,1668.035889 1518.416626,1666.809814 
	C1530.601074,1664.989990 1542.752563,1662.949219 1554.917603,1660.999756 
	C1565.801392,1659.255859 1576.739868,1657.793823 1587.554565,1655.693970 
	C1602.908936,1652.712646 1618.252441,1649.595337 1633.455811,1645.934937 
	C1659.865601,1639.576538 1686.312378,1633.287476 1712.467651,1625.981201 
	C1737.673584,1618.939941 1762.264404,1609.931641 1785.135742,1596.933350 
	C1797.013916,1590.182983 1808.671387,1582.994995 1816.892578,1571.592773 
	C1822.712402,1563.520874 1825.530029,1554.897949 1823.097412,1544.754517 
	C1820.476562,1533.826660 1813.029175,1526.358887 1805.016235,1519.782227 
	C1790.103882,1507.542969 1772.761108,1499.278076 1754.965210,1492.044556 
	C1748.292358,1489.332397 1741.510498,1486.888428 1734.060669,1484.048462 
	C1743.997925,1480.089722 1753.048950,1476.842041 1761.800171,1472.924927 
	C1781.379395,1464.161011 1800.882080,1455.068115 1815.154785,1438.229004 
	C1823.389771,1428.513184 1826.747314,1417.604004 1821.581421,1404.970581 
	C1816.843506,1393.383667 1807.807251,1385.875977 1798.041626,1379.036743 
	C1778.782227,1365.548584 1757.155640,1356.829590 1735.190063,1349.080322 
	C1705.310181,1338.538940 1674.723145,1330.390869 1643.695557,1323.935303 
	C1626.165894,1320.288086 1608.655151,1316.546753 1591.097656,1313.038818 
	C1580.157227,1310.853027 1569.165161,1308.906494 1558.159790,1307.070801 
	C1549.032104,1305.548096 1539.856323,1304.308472 1530.692505,1303.009277 
	C1520.231934,1301.526367 1509.762085,1300.108887 1499.294434,1298.676025 
	C1490.272705,1297.441040 1481.262817,1296.104736 1472.221680,1295.032349 
	C1462.489136,1293.877808 1452.717529,1293.054688 1442.978882,1291.947021 
	C1432.133179,1290.713379 1421.319214,1289.192993 1410.465576,1288.041626 
	C1402.152588,1287.159790 1393.788818,1286.765991 1385.466187,1285.963379 
	C1369.036987,1284.378784 1352.632812,1282.525146 1336.194824,1281.041626 
	C1322.791382,1279.831909 1309.360474,1278.895386 1295.929565,1278.024902 
	C1278.847656,1276.917725 1261.754639,1275.979370 1244.664307,1275.006470 
	C1232.329346,1274.304077 1219.995850,1273.550781 1207.652954,1273.022583 
	C1189.653809,1272.252441 1171.651123,1271.501831 1153.642090,1271.054932 
	C1141.595337,1270.755981 1129.535278,1270.998047 1116.989624,1270.998047 
	C1117.596924,1269.200928 1117.719238,1268.563477 1118.010742,1268.015991 
	C1126.632080,1251.819946 1134.972778,1235.464600 1143.994141,1219.493896 
	C1152.136475,1205.079346 1160.180786,1190.482910 1169.778687,1177.045410 
	C1185.326416,1155.278076 1201.472168,1133.862793 1218.572998,1113.303345 
	C1232.436768,1096.635498 1247.668457,1081.034912 1263.055054,1065.726440 
	C1275.511230,1053.333496 1288.827637,1041.755493 1302.274780,1030.423950 
	C1312.923218,1021.450989 1324.081421,1013.018005 1335.496338,1005.036194 
	C1350.022705,994.878845 1364.750000,984.944275 1379.918945,975.788818 
	C1395.605957,966.320618 1411.495972,956.980347 1428.071655,949.243042 
	C1451.582764,938.268250 1475.617920,928.341003 1499.782227,918.866394 
	C1516.917358,912.147827 1534.430908,906.189270 1552.144531,901.201843 
	C1575.660278,894.580872 1599.467896,888.943665 1623.282349,883.457092 
	C1636.661621,880.374634 1650.285522,878.320312 1663.839722,876.042725 
	C1673.289062,874.454895 1682.806030,873.269653 1692.294067,871.913330 
	C1701.459717,870.603088 1710.606323,869.127563 1719.799805,868.053589 
	C1727.771362,867.122375 1735.799072,866.676453 1743.797974,865.971985 
	C1758.639893,864.664917 1773.457642,862.942017 1788.325806,862.124451 
	C1799.706177,861.498596 1811.148560,862.000000 1822.563354,862.000000 
	C1822.619629,861.479248 1822.676025,860.958557 1822.732300,860.437805 
	C1821.601685,859.959412 1820.503174,859.174683 1819.335327,859.052490 
	C1812.010742,858.286072 1804.669189,857.681580 1797.335938,856.996155 
	C1786.750122,856.006775 1776.129761,855.281738 1765.590942,853.924683 
	C1749.480957,851.850281 1733.403687,849.486267 1717.357178,846.962463 
	C1699.442261,844.144775 1681.471313,841.527527 1663.715576,837.891541 
	C1638.473755,832.722717 1613.348877,826.944641 1588.277222,820.992493 
	C1550.146484,811.939819 1512.623047,800.801941 1476.306152,785.969849 
	C1453.458130,776.638550 1430.731323,766.981567 1408.211914,756.886780 
	C1397.371582,752.027588 1386.987305,746.078430 1376.661987,740.159912 
	C1361.040527,731.205688 1345.297241,722.385620 1330.259766,712.512329 
	C1314.463135,702.140442 1299.002563,691.143921 1284.189575,679.416748 
	C1267.524780,666.223572 1251.309082,652.383484 1235.698364,637.958740 
	C1217.291016,620.949585 1200.373535,602.426453 1185.065918,582.526367 
	C1174.893066,569.301514 1164.401855,556.268433 1155.076050,542.458740 
	C1144.096680,526.200500 1133.281006,509.696136 1124.090454,492.397369 
	C1110.302979,466.446167 1096.835815,440.199951 1085.392700,413.164825 
	C1074.860474,388.281799 1066.622070,362.369049 1058.424316,336.575806 
	C1052.105225,316.693756 1047.086060,296.374847 1042.102783,276.099335 
	C1037.949463,259.200653 1034.501099,242.120010 1031.101074,225.048157 
	C1029.044922,214.724014 1027.615356,204.272308 1026.016602,193.860687 
	C1024.586670,184.548859 1023.270264,175.219009 1021.976868,165.886948 
	C1020.280457,153.647202 1018.564392,141.408875 1017.035767,129.147629 
	C1016.166016,122.171562 1015.656494,115.150665 1014.978699,108.150551 
	C1013.654907,94.479881 1012.262573,80.815414 1011.030884,67.136467 
	C1010.514404,61.400799 1010.393372,55.630314 1009.951294,49.886539 
	C1009.863464,48.745117 1009.132202,47.653225 1008.520447,46.084187 
	C1007.939819,49.868343 1007.375916,52.916344 1007.017273,55.988316 
	C1005.314880,70.567131 1003.841980,85.175018 1001.951355,99.728897 
	C1000.195007,113.248146 998.309937,126.764191 995.952576,140.188766 
	C992.207642,161.515030 988.702454,182.920090 983.860840,204.008270 
	C977.027649,233.771011 969.634949,263.434174 961.387573,292.833099 
	C956.027588,311.939758 949.276794,330.714294 942.142944,349.250427 
	C933.511353,371.678345 924.279114,393.904938 914.426392,415.822906 
	C907.449036,431.344269 899.370300,446.407654 891.128235,461.313263 
	C882.106201,477.629517 873.162964,494.096222 862.684509,509.474670 
	C847.748901,531.394470 831.978455,552.802490 815.552246,573.630737 
	C803.370361,589.077332 789.790283,603.450134 776.418152,617.917786 
	C769.236145,625.688171 761.346863,632.835571 753.480530,639.935730 
	C739.163513,652.858337 725.171326,666.230469 710.032959,678.129089 
	C693.543884,691.089478 676.402832,703.379578 658.645569,714.527466 
	C635.374146,729.137085 611.466187,742.790039 587.357117,755.986877 
	C572.443970,764.150085 556.857056,771.192078 541.194946,777.848755 
	C522.623108,785.741943 503.917877,793.503296 484.779938,799.840271 
	C455.551727,809.518188 425.958954,818.117432 396.402527,826.770081 
	C386.067017,829.795837 375.402344,831.723999 364.850403,833.977356 
	C350.808380,836.975891 336.748566,839.898560 322.660187,842.669739 
	C312.819366,844.605530 302.957336,846.507812 293.033905,847.931030 
	C279.495667,849.872620 265.894379,851.380859 252.312027,853.007263 
	C238.067398,854.713013 223.810532,856.316162 209.564728,858.012146 
	C204.472275,858.618347 199.396515,859.364929 194.313141,860.047424 
	C199.194046,861.378296 203.974442,862.286377 208.785919,862.978699 
	C220.847885,864.714233 232.970810,866.074097 244.982010,868.101685 
	C258.840240,870.441101 272.620056,873.258728 286.406677,876.005371 
	C308.087494,880.324890 329.936462,883.992676 351.365753,889.334412 
	C379.399597,896.322388 407.227539,904.230469 434.886322,912.595032 
	C452.508423,917.924316 469.842438,924.343384 486.983398,931.092163 
	C509.641693,940.013306 532.155273,949.352234 554.399780,959.255493 
	C567.911804,965.271057 581.013000,972.309814 593.914978,979.570801 
	C611.990784,989.743469 629.981079,1000.120300 647.517334,1011.187073 
	C674.432312,1028.172607 700.053528,1046.995605 723.764343,1068.298584 
	C738.213257,1081.280273 753.198547,1093.760742 766.710510,1107.663818 
	C782.244385,1123.647583 796.835388,1140.607910 811.053223,1157.791504 
	C823.027283,1172.263428 834.335327,1187.344604 845.103821,1202.739624 
	C856.179871,1218.574585 866.369446,1235.037720 876.689392,1251.388672 
	C880.562378,1257.524902 883.710876,1264.118652 887.188232,1270.501221 
	C875.651245,1271.019653 864.743835,1271.515503 853.835876,1271.998047 
	C846.084595,1272.341064 838.332336,1272.661255 830.580872,1273.000244 
	C815.410217,1273.663696 800.241638,1274.379272 785.068726,1274.984009 
	C774.653442,1275.399170 764.230347,1275.614624 753.814392,1276.014648 
	C747.725342,1276.248535 741.631958,1276.529663 735.560730,1277.033813 
	C720.545837,1278.281128 705.552063,1279.789429 690.531616,1280.960083 
	C679.377869,1281.829468 668.193970,1282.305908 657.027161,1283.015869 
	C652.938538,1283.275635 648.853271,1283.635132 644.779175,1284.068726 
	C632.769348,1285.347046 620.772766,1286.752319 608.757568,1287.976196 
	C600.771057,1288.789673 592.742371,1289.207886 584.767212,1290.109619 
	C574.743713,1291.242798 564.765015,1292.766357 554.749451,1293.977051 
	C545.513733,1295.093506 536.221924,1295.784668 527.013794,1297.081909 
	C511.913513,1299.209106 496.863403,1301.690674 481.787689,1303.993530 
	C468.474243,1306.027344 455.092957,1307.685181 441.852875,1310.115356 
	C423.757324,1313.436890 405.790039,1317.450806 387.726685,1320.956177 
	C356.587128,1326.998779 325.861053,1334.695190 295.801147,1344.783081 
	C280.782837,1349.822998 266.152985,1356.040283 251.423218,1361.915039 
	C233.320801,1369.135010 216.539795,1378.585449 203.372559,1393.262817 
	C195.818314,1401.683472 191.903580,1411.371460 194.873795,1423.223877 
	C197.744492,1434.679321 205.608505,1442.469971 214.054474,1449.214233 
	C228.832443,1461.014648 245.891556,1469.134766 263.494965,1476.006714 
	C270.065857,1478.571899 276.608368,1481.209961 283.200653,1483.829468 
	C271.895142,1488.663574 260.980042,1493.250488 250.130753,1497.988037 
	C232.259995,1505.791626 214.998550,1514.699951 202.454575,1530.206177 
	C195.048660,1539.361084 191.295456,1549.584473 195.839279,1561.768921 
	C200.000412,1572.927368 208.130463,1580.301270 217.243164,1587.009888 
	C230.151352,1596.511963 244.181931,1604.127197 259.210327,1609.511597 
	C283.046295,1618.051514 306.825989,1627.027832 331.214172,1633.673950 
	C359.317291,1641.332520 388.055573,1646.660400 417.401337,1653.003540 
M598.500000,1795.000000 
	C519.675537,1795.000000 440.850159,1794.807373 362.027496,1795.182739 
	C348.311279,1795.248047 334.423950,1796.744019 320.939423,1799.292358 
	C300.968384,1803.066772 281.477356,1809.132446 263.931122,1819.738281 
	C254.205551,1825.616943 245.096222,1832.588623 236.085312,1839.554321 
	C227.659134,1846.067627 219.608505,1853.086060 211.614258,1860.133667 
	C202.941010,1867.780029 194.085297,1875.302002 186.156570,1883.680054 
	C181.278992,1888.833984 178.411179,1895.581543 177.951614,1903.107300 
	C176.995605,1918.763062 185.578140,1929.445068 197.006195,1937.846313 
	C215.356522,1951.336060 236.809357,1956.832764 259.168182,1956.857056 
	C477.646545,1957.094360 696.125244,1957.035767 914.603760,1956.872803 
	C923.547058,1956.866089 932.634094,1955.673828 941.393127,1953.808472 
	C951.471069,1951.662109 960.920227,1947.521851 968.498840,1940.040527 
	C971.554321,1937.024048 971.189941,1934.034790 968.588135,1931.118286 
	C964.792786,1926.863403 959.711121,1925.993530 954.325012,1925.993774 
	C741.512512,1926.001221 528.700012,1926.023682 315.887604,1925.860596 
	C310.667450,1925.856567 305.082031,1924.610474 300.304779,1922.499878 
	C289.877258,1917.893066 289.651031,1909.499023 298.972534,1902.964966 
	C317.492828,1889.982788 338.563171,1885.157471 360.537628,1885.132812 
	C561.851013,1884.907104 763.164734,1885.007690 964.478394,1884.956177 
	C969.574524,1884.954956 974.770752,1884.820190 979.747437,1883.855713 
	C993.615234,1881.167847 1007.552917,1878.603394 1021.169861,1874.909790 
	C1046.763916,1867.967285 1069.698608,1856.000366 1088.631958,1836.952148 
	C1097.947510,1827.580200 1096.095581,1816.422607 1087.734619,1808.486328 
	C1078.319092,1799.548828 1066.376953,1795.104492 1053.455444,1795.092285 
	C902.137085,1794.948486 750.818542,1795.000000 598.500000,1795.000000 
M680.009766,331.474884 
	C677.060669,333.763519 674.132751,336.080078 671.158997,338.336212 
	C654.937256,350.643402 638.243530,362.262115 619.315002,370.050323 
	C612.695862,372.773804 605.591980,375.021881 598.522461,375.810791 
	C580.433777,377.829437 563.306335,373.531616 547.092957,365.554749 
	C525.926147,355.140839 506.202942,342.360504 487.072174,328.620117 
	C485.282166,327.334442 483.189667,326.469971 481.237640,325.409912 
	C480.980164,325.761688 480.722717,326.113495 480.465271,326.465271 
	C484.595093,331.471222 489.072662,336.233154 492.789246,341.529114 
	C503.719513,357.104156 514.717346,372.654510 524.972168,388.673248 
	C532.571655,400.544159 537.521667,413.737335 538.935425,427.894562 
	C540.667603,445.239258 536.013916,461.479279 528.487732,476.809052 
	C522.828491,488.336060 516.777039,499.798218 509.613495,510.421600 
	C502.987183,520.248291 497.880859,531.259399 487.885193,538.783203 
	C468.256348,553.557861 448.822052,568.645691 426.017975,578.268372 
	C418.268280,581.538574 409.791534,583.882874 401.445984,584.779846 
	C383.491791,586.709595 366.542145,581.633362 350.958282,573.233765 
	C334.696869,564.469055 319.111816,554.436890 303.346649,544.770386 
	C297.280304,541.050781 291.532471,536.811829 285.639496,532.809509 
	C291.883453,542.358459 298.754944,551.147583 305.506622,560.027832 
	C317.436371,575.718689 328.848450,591.750732 336.973328,609.843506 
	C341.785645,620.559692 344.859131,631.823669 344.883575,643.549133 
	C344.917206,659.692383 339.943756,674.859497 332.395905,688.837952 
	C323.999878,704.387268 314.375916,719.280823 305.087524,734.337158 
	C301.267212,740.529724 296.927460,746.401855 292.375305,753.077759 
	C293.843811,752.851990 294.418091,752.940002 294.710693,752.693481 
	C313.690247,736.706970 333.268158,721.516296 354.684631,708.897888 
	C366.929474,701.683289 379.812469,695.706116 394.132507,694.064087 
	C411.596954,692.061462 428.171814,695.975342 443.821381,703.454102 
	C465.830261,713.971924 486.165039,727.325439 505.995880,741.462708 
	C507.544220,742.566528 509.358765,743.296875 511.049591,744.200867 
	C504.524506,734.288452 497.492004,725.174255 490.527649,716.008240 
	C479.286743,701.213806 468.768768,685.960876 460.996918,668.983887 
	C456.238312,658.589172 453.494110,647.627930 453.095551,636.269226 
	C452.597961,622.087830 456.383179,608.546204 462.662811,596.079224 
	C470.101501,581.311218 478.527344,567.006592 487.153595,552.885010 
	C491.382172,545.962585 496.560699,539.455261 502.189301,533.606934 
	C506.503632,529.124207 512.288513,526.085754 517.260559,522.201721 
	C533.065186,509.855194 549.436584,498.521545 568.194336,490.924652 
	C585.935364,483.739594 603.965332,482.476624 621.984680,488.688293 
	C632.535400,492.325378 642.971252,496.862671 652.606323,502.461792 
	C668.742249,511.838684 684.188477,522.401184 699.948914,532.427002 
	C701.802307,533.605957 703.806763,534.547546 705.741150,535.599243 
	C700.827576,527.661682 695.596558,520.446106 689.971069,513.552490 
	C676.743896,497.343353 665.067627,480.137909 656.055420,461.232178 
	C646.873535,441.970612 645.304077,422.144348 651.703979,401.608398 
	C657.026245,384.530487 665.757019,369.215942 675.287598,354.319672 
	C683.333618,341.743774 690.076355,328.286224 703.009460,319.259827 
	C720.602966,306.980682 737.343750,293.447723 757.040710,284.473969 
	C766.763184,280.044464 776.879333,276.817627 787.591553,276.033478 
	C804.102112,274.824921 819.654175,279.198334 833.926270,286.719574 
	C850.833435,295.629486 866.993835,305.973816 883.336365,315.928833 
	C889.539062,319.707184 895.347778,324.132233 901.336121,328.262543 
	C896.224609,320.019287 890.453552,312.611389 884.693298,305.195099 
	C871.120728,287.720428 858.179993,269.818787 849.191040,249.452301 
	C844.858643,239.636444 842.335632,229.227142 842.071899,218.489258 
	C841.681213,202.583771 846.458984,187.679276 853.795166,173.960861 
	C862.505798,157.672455 872.573242,142.102585 882.239929,126.336128 
	C885.961609,120.266029 890.198242,114.511703 894.629944,107.980202 
	C893.186890,108.156952 892.605408,108.047729 892.321045,108.288803 
	C873.387146,124.340652 853.672668,139.342255 832.344666,152.091095 
	C817.358643,161.049026 801.286926,167.438187 783.657959,167.844727 
	C769.225708,168.177521 755.800720,163.282928 742.747192,157.356445 
	C720.170288,147.106247 700.235107,132.545837 679.592102,119.129852 
	C678.538452,118.445107 677.332458,117.994827 675.638733,117.160034 
	C675.973999,118.649506 675.937988,119.248268 676.214050,119.606445 
	C685.428833,131.560181 694.969055,143.276138 703.834351,155.482498 
	C713.664429,169.017288 722.568359,183.177811 728.486816,198.971558 
	C735.093628,216.602020 735.426453,234.348785 729.349304,252.191971 
	C722.446777,272.458405 711.492493,290.642853 699.799133,308.347412 
	C694.354675,316.590790 690.109314,326.127502 680.009766,331.474884 
M1303.500000,1957.000000 
	C1404.635254,1957.000000 1505.770752,1957.072510 1606.905762,1956.911621 
	C1620.091431,1956.890625 1633.334351,1956.225342 1646.442505,1954.836426 
	C1658.259155,1953.584351 1668.904053,1948.496338 1678.066772,1940.866211 
	C1680.702637,1938.671143 1682.173218,1935.388550 1679.428467,1931.873901 
	C1675.648560,1927.034180 1670.287109,1926.034180 1664.703003,1926.033081 
	C1468.430420,1925.993652 1272.157959,1925.972900 1075.885376,1926.084839 
	C1066.701294,1926.090088 1057.442627,1926.815552 1048.353760,1928.135742 
	C1037.439819,1929.721069 1027.459961,1934.182495 1018.650269,1940.915405 
	C1013.908875,1944.538940 1013.377930,1948.871704 1018.194214,1952.328003 
	C1021.767944,1954.892700 1026.733154,1956.798584 1031.084595,1956.810669 
	C1121.555908,1957.061890 1212.028076,1957.000000 1303.500000,1957.000000 
M1684.650024,1884.001343 
	C1699.547852,1883.249634 1713.967529,1880.020508 1728.316528,1876.090820 
	C1756.728271,1868.309692 1781.778442,1854.764404 1802.650879,1833.828003 
	C1810.005493,1826.451050 1809.872681,1815.471069 1802.492920,1807.988403 
	C1793.724365,1799.097656 1782.530640,1795.599731 1770.595703,1795.167480 
	C1758.699097,1794.736694 1746.690186,1795.021484 1734.846436,1796.178711 
	C1722.723633,1797.363159 1710.623047,1799.455200 1698.725342,1802.104370 
	C1680.383057,1806.188965 1663.006592,1813.105835 1647.012329,1823.060303 
	C1635.633667,1830.141724 1624.804565,1838.075073 1616.157593,1848.467651 
	C1611.667114,1853.864380 1610.926514,1861.226440 1615.213623,1867.799438 
	C1620.878784,1876.485107 1629.268677,1881.447266 1638.947266,1882.750122 
	C1651.484009,1884.437988 1664.259399,1884.397827 1676.938965,1884.939697 
	C1679.182373,1885.035645 1681.459473,1884.341187 1684.650024,1884.001343 
M1393.107056,1882.591553 
	C1397.927490,1883.394409 1402.762207,1884.948608 1407.565796,1884.857910 
	C1421.427979,1884.595947 1435.374756,1884.463135 1449.104492,1882.780029 
	C1462.444458,1881.144775 1475.787964,1878.467651 1488.720947,1874.804443 
	C1515.366699,1867.257202 1538.935913,1853.978149 1558.478027,1834.036865 
	C1565.902344,1826.460938 1565.978027,1815.742920 1558.695190,1808.178955 
	C1550.127197,1799.280396 1538.967285,1795.791870 1527.344727,1795.192383 
	C1501.465942,1793.857666 1475.787109,1795.850830 1450.676392,1802.978394 
	C1433.864990,1807.750244 1417.480957,1813.699463 1402.805420,1823.207764 
	C1393.104858,1829.492798 1384.251343,1837.119873 1375.231934,1844.410034 
	C1367.914917,1850.324097 1366.678711,1860.858521 1371.962280,1868.800293 
	C1376.872314,1876.180542 1384.244995,1879.778931 1393.107056,1882.591553 
M1256.608032,1795.000000 
	C1239.148071,1796.135376 1221.921143,1798.680664 1205.054810,1803.450317 
	C1188.721191,1808.069580 1172.834351,1814.008545 1158.646729,1823.319214 
	C1149.112427,1829.576050 1140.738403,1837.584473 1131.724121,1844.654785 
	C1123.561646,1851.057007 1121.809937,1863.198120 1129.867798,1871.381958 
	C1139.132568,1880.791748 1150.903931,1884.384033 1163.512451,1884.880615 
	C1185.428711,1885.743774 1207.129150,1884.084351 1228.668457,1879.148071 
	C1261.314087,1871.666504 1290.272583,1857.832642 1314.498535,1834.269897 
	C1321.186768,1827.764771 1322.050293,1815.326416 1314.490845,1807.921509 
	C1305.574829,1799.188354 1294.488647,1795.879883 1282.557007,1795.103760 
	C1274.265503,1794.564575 1265.910767,1795.000000 1256.608032,1795.000000 
M512.946045,745.296021 
	C512.680664,744.889343 512.415283,744.482666 512.149841,744.075989 
	C512.203796,744.644653 512.257812,745.213318 512.946045,745.296021 
M707.825867,536.369202 
	C707.237183,536.277283 706.648560,536.185364 706.059875,536.093506 
	C706.459045,536.380432 706.858276,536.667297 707.825867,536.369202 
M479.808441,325.180878 
	C480.166718,325.109344 480.524963,325.037781 480.883240,324.966248 
	C480.807800,324.720306 480.689423,324.255615 480.663239,324.260773 
	C480.165131,324.358551 479.677917,324.511688 479.808441,325.180878 
M674.183777,116.632278 
	C674.767944,116.723885 675.352051,116.815491 675.936218,116.907082 
	C675.540344,116.622360 675.144470,116.337631 674.183777,116.632278 
z"/>
<path fill="#FAFAFA" opacity="1.000000" stroke="none" 
	d="
M416.959656,1653.001953 
	C388.055573,1646.660400 359.317291,1641.332520 331.214172,1633.673950 
	C306.825989,1627.027832 283.046295,1618.051514 259.210327,1609.511597 
	C244.181931,1604.127197 230.151352,1596.511963 217.243164,1587.009888 
	C208.130463,1580.301270 200.000412,1572.927368 195.839279,1561.768921 
	C191.295456,1549.584473 195.048660,1539.361084 202.454575,1530.206177 
	C214.998550,1514.699951 232.259995,1505.791626 250.130753,1497.988037 
	C260.980042,1493.250488 271.895142,1488.663574 283.200653,1483.829468 
	C276.608368,1481.209961 270.065857,1478.571899 263.494965,1476.006714 
	C245.891556,1469.134766 228.832443,1461.014648 214.054474,1449.214233 
	C205.608505,1442.469971 197.744492,1434.679321 194.873795,1423.223877 
	C191.903580,1411.371460 195.818314,1401.683472 203.372559,1393.262817 
	C216.539795,1378.585449 233.320801,1369.135010 251.423218,1361.915039 
	C266.152985,1356.040283 280.782837,1349.822998 295.801147,1344.783081 
	C325.861053,1334.695190 356.587128,1326.998779 387.726685,1320.956177 
	C405.790039,1317.450806 423.757324,1313.436890 441.852875,1310.115356 
	C455.092957,1307.685181 468.474243,1306.027344 481.787689,1303.993530 
	C496.863403,1301.690674 511.913513,1299.209106 527.013794,1297.081909 
	C536.221924,1295.784668 545.513733,1295.093506 554.749451,1293.977051 
	C564.765015,1292.766357 574.743713,1291.242798 584.767212,1290.109619 
	C592.742371,1289.207886 600.771057,1288.789673 608.757568,1287.976196 
	C620.772766,1286.752319 632.769348,1285.347046 644.779175,1284.068726 
	C648.853271,1283.635132 652.938538,1283.275635 657.027161,1283.015869 
	C668.193970,1282.305908 679.377869,1281.829468 690.531616,1280.960083 
	C705.552063,1279.789429 720.545837,1278.281128 735.560730,1277.033813 
	C741.631958,1276.529663 747.725342,1276.248535 753.814392,1276.014648 
	C764.230347,1275.614624 774.653442,1275.399170 785.068726,1274.984009 
	C800.241638,1274.379272 815.410217,1273.663696 830.580872,1273.000244 
	C838.332336,1272.661255 846.084595,1272.341064 853.835876,1271.998047 
	C864.743835,1271.515503 875.651245,1271.019653 887.188232,1270.501221 
	C883.710876,1264.118652 880.562378,1257.524902 876.689392,1251.388672 
	C866.369446,1235.037720 856.179871,1218.574585 845.103821,1202.739624 
	C834.335327,1187.344604 823.027283,1172.263428 811.053223,1157.791504 
	C796.835388,1140.607910 782.244385,1123.647583 766.710510,1107.663818 
	C753.198547,1093.760742 738.213257,1081.280273 723.764343,1068.298584 
	C700.053528,1046.995605 674.432312,1028.172607 647.517334,1011.187073 
	C629.981079,1000.120300 611.990784,989.743469 593.914978,979.570801 
	C581.013000,972.309814 567.911804,965.271057 554.399780,959.255493 
	C532.155273,949.352234 509.641693,940.013306 486.983398,931.092163 
	C469.842438,924.343384 452.508423,917.924316 434.886322,912.595032 
	C407.227539,904.230469 379.399597,896.322388 351.365753,889.334412 
	C329.936462,883.992676 308.087494,880.324890 286.406677,876.005371 
	C272.620056,873.258728 258.840240,870.441101 244.982010,868.101685 
	C232.970810,866.074097 220.847885,864.714233 208.785919,862.978699 
	C203.974442,862.286377 199.194046,861.378296 194.313141,860.047424 
	C199.396515,859.364929 204.472275,858.618347 209.564728,858.012146 
	C223.810532,856.316162 238.067398,854.713013 252.312027,853.007263 
	C265.894379,851.380859 279.495667,849.872620 293.033905,847.931030 
	C302.957336,846.507812 312.819366,844.605530 322.660187,842.669739 
	C336.748566,839.898560 350.808380,836.975891 364.850403,833.977356 
	C375.402344,831.723999 386.067017,829.795837 396.402527,826.770081 
	C425.958954,818.117432 455.551727,809.518188 484.779938,799.840271 
	C503.917877,793.503296 522.623108,785.741943 541.194946,777.848755 
	C556.857056,771.192078 572.443970,764.150085 587.357117,755.986877 
	C611.466187,742.790039 635.374146,729.137085 658.645569,714.527466 
	C676.402832,703.379578 693.543884,691.089478 710.032959,678.129089 
	C725.171326,666.230469 739.163513,652.858337 753.480530,639.935730 
	C761.346863,632.835571 769.236145,625.688171 776.418152,617.917786 
	C789.790283,603.450134 803.370361,589.077332 815.552246,573.630737 
	C831.978455,552.802490 847.748901,531.394470 862.684509,509.474670 
	C873.162964,494.096222 882.106201,477.629517 891.128235,461.313263 
	C899.370300,446.407654 907.449036,431.344269 914.426392,415.822906 
	C924.279114,393.904938 933.511353,371.678345 942.142944,349.250427 
	C949.276794,330.714294 956.027588,311.939758 961.387573,292.833099 
	C969.634949,263.434174 977.027649,233.771011 983.860840,204.008270 
	C988.702454,182.920090 992.207642,161.515030 995.952576,140.188766 
	C998.309937,126.764191 1000.195007,113.248146 1001.951355,99.728897 
	C1003.841980,85.175018 1005.314880,70.567131 1007.017273,55.988316 
	C1007.375916,52.916344 1007.939819,49.868343 1008.520447,46.084187 
	C1009.132202,47.653225 1009.863464,48.745117 1009.951294,49.886539 
	C1010.393372,55.630314 1010.514404,61.400799 1011.030884,67.136467 
	C1012.262573,80.815414 1013.654907,94.479881 1014.978699,108.150551 
	C1015.656494,115.150665 1016.166016,122.171562 1017.035767,129.147629 
	C1018.564392,141.408875 1020.280457,153.647202 1021.976868,165.886948 
	C1023.270264,175.219009 1024.586670,184.548859 1026.016602,193.860687 
	C1027.615356,204.272308 1029.044922,214.724014 1031.101074,225.048157 
	C1034.501099,242.120010 1037.949463,259.200653 1042.102783,276.099335 
	C1047.086060,296.374847 1052.105225,316.693756 1058.424316,336.575806 
	C1066.622070,362.369049 1074.860474,388.281799 1085.392700,413.164825 
	C1096.835815,440.199951 1110.302979,466.446167 1124.090454,492.397369 
	C1133.281006,509.696136 1144.096680,526.200500 1155.076050,542.458740 
	C1164.401855,556.268433 1174.893066,569.301514 1185.065918,582.526367 
	C1200.373535,602.426453 1217.291016,620.949585 1235.698364,637.958740 
	C1251.309082,652.383484 1267.524780,666.223572 1284.189575,679.416748 
	C1299.002563,691.143921 1314.463135,702.140442 1330.259766,712.512329 
	C1345.297241,722.385620 1361.040527,731.205688 1376.661987,740.159912 
	C1386.987305,746.078430 1397.371582,752.027588 1408.211914,756.886780 
	C1430.731323,766.981567 1453.458130,776.638550 1476.306152,785.969849 
	C1512.623047,800.801941 1550.146484,811.939819 1588.277222,820.992493 
	C1613.348877,826.944641 1638.473755,832.722717 1663.715576,837.891541 
	C1681.471313,841.527527 1699.442261,844.144775 1717.357178,846.962463 
	C1733.403687,849.486267 1749.480957,851.850281 1765.590942,853.924683 
	C1776.129761,855.281738 1786.750122,856.006775 1797.335938,856.996155 
	C1804.669189,857.681580 1812.010742,858.286072 1819.335327,859.052490 
	C1820.503174,859.174683 1821.601685,859.959412 1822.732300,860.437805 
	C1822.676025,860.958557 1822.619629,861.479248 1822.563354,862.000000 
	C1811.148560,862.000000 1799.706177,861.498596 1788.325806,862.124451 
	C1773.457642,862.942017 1758.639893,864.664917 1743.797974,865.971985 
	C1735.799072,866.676453 1727.771362,867.122375 1719.799805,868.053589 
	C1710.606323,869.127563 1701.459717,870.603088 1692.294067,871.913330 
	C1682.806030,873.269653 1673.289062,874.454895 1663.839722,876.042725 
	C1650.285522,878.320312 1636.661621,880.374634 1623.282349,883.457092 
	C1599.467896,888.943665 1575.660278,894.580872 1552.144531,901.201843 
	C1534.430908,906.189270 1516.917358,912.147827 1499.782227,918.866394 
	C1475.617920,928.341003 1451.582764,938.268250 1428.071655,949.243042 
	C1411.495972,956.980347 1395.605957,966.320618 1379.918945,975.788818 
	C1364.750000,984.944275 1350.022705,994.878845 1335.496338,1005.036194 
	C1324.081421,1013.018005 1312.923218,1021.450989 1302.274780,1030.423950 
	C1288.827637,1041.755493 1275.511230,1053.333496 1263.055054,1065.726440 
	C1247.668457,1081.034912 1232.436768,1096.635498 1218.572998,1113.303345 
	C1201.472168,1133.862793 1185.326416,1155.278076 1169.778687,1177.045410 
	C1160.180786,1190.482910 1152.136475,1205.079346 1143.994141,1219.493896 
	C1134.972778,1235.464600 1126.632080,1251.819946 1118.010742,1268.015991 
	C1117.719238,1268.563477 1117.596924,1269.200928 1116.989624,1270.998047 
	C1129.535278,1270.998047 1141.595337,1270.755981 1153.642090,1271.054932 
	C1171.651123,1271.501831 1189.653809,1272.252441 1207.652954,1273.022583 
	C1219.995850,1273.550781 1232.329346,1274.304077 1244.664307,1275.006470 
	C1261.754639,1275.979370 1278.847656,1276.917725 1295.929565,1278.024902 
	C1309.360474,1278.895386 1322.791382,1279.831909 1336.194824,1281.041626 
	C1352.632812,1282.525146 1369.036987,1284.378784 1385.466187,1285.963379 
	C1393.788818,1286.765991 1402.152588,1287.159790 1410.465576,1288.041626 
	C1421.319214,1289.192993 1432.133179,1290.713379 1442.978882,1291.947021 
	C1452.717529,1293.054688 1462.489136,1293.877808 1472.221680,1295.032349 
	C1481.262817,1296.104736 1490.272705,1297.441040 1499.294434,1298.676025 
	C1509.762085,1300.108887 1520.231934,1301.526367 1530.692505,1303.009277 
	C1539.856323,1304.308472 1549.032104,1305.548096 1558.159790,1307.070801 
	C1569.165161,1308.906494 1580.157227,1310.853027 1591.097656,1313.038818 
	C1608.655151,1316.546753 1626.165894,1320.288086 1643.695557,1323.935303 
	C1674.723145,1330.390869 1705.310181,1338.538940 1735.190063,1349.080322 
	C1757.155640,1356.829590 1778.782227,1365.548584 1798.041626,1379.036743 
	C1807.807251,1385.875977 1816.843506,1393.383667 1821.581421,1404.970581 
	C1826.747314,1417.604004 1823.389771,1428.513184 1815.154785,1438.229004 
	C1800.882080,1455.068115 1781.379395,1464.161011 1761.800171,1472.924927 
	C1753.048950,1476.842041 1743.997925,1480.089722 1734.060669,1484.048462 
	C1741.510498,1486.888428 1748.292358,1489.332397 1754.965210,1492.044556 
	C1772.761108,1499.278076 1790.103882,1507.542969 1805.016235,1519.782227 
	C1813.029175,1526.358887 1820.476562,1533.826660 1823.097412,1544.754517 
	C1825.530029,1554.897949 1822.712402,1563.520874 1816.892578,1571.592773 
	C1808.671387,1582.994995 1797.013916,1590.182983 1785.135742,1596.933350 
	C1762.264404,1609.931641 1737.673584,1618.939941 1712.467651,1625.981201 
	C1686.312378,1633.287476 1659.865601,1639.576538 1633.455811,1645.934937 
	C1618.252441,1649.595337 1602.908936,1652.712646 1587.554565,1655.693970 
	C1576.739868,1657.793823 1565.801392,1659.255859 1554.917603,1660.999756 
	C1542.752563,1662.949219 1530.601074,1664.989990 1518.416626,1666.809814 
	C1510.207153,1668.035889 1501.943359,1668.891968 1493.717651,1670.015015 
	C1484.544556,1671.267334 1475.401367,1672.744629 1466.218506,1673.915283 
	C1459.410034,1674.783325 1452.551392,1675.247925 1445.728882,1676.015869 
	C1434.551758,1677.274048 1423.395386,1678.720459 1412.212158,1679.919556 
	C1404.394775,1680.757935 1396.544922,1681.291138 1388.713745,1682.005371 
	C1374.373169,1683.313232 1360.040161,1684.704956 1345.695190,1685.962646 
	C1336.866943,1686.736694 1328.029907,1687.445435 1319.184326,1687.975342 
	C1301.100830,1689.058838 1283.007935,1689.981689 1264.921021,1691.009766 
	C1253.915283,1691.635376 1242.918457,1692.434570 1231.908813,1692.975952 
	C1216.409790,1693.738281 1200.902710,1694.338745 1185.398560,1694.999023 
	C1177.313965,1695.343384 1169.230835,1695.747559 1161.142944,1695.981934 
	C1147.393066,1696.380615 1133.639038,1696.630981 1119.888672,1697.012451 
	C1110.135132,1697.282959 1100.307495,1698.588501 1090.651855,1697.777710 
	C1077.172974,1696.645752 1066.289795,1701.957642 1055.660156,1708.852051 
	C1031.484375,1724.532349 1017.910889,1747.447876 1011.164185,1774.830688 
	C1010.042114,1779.384888 1010.398682,1784.296265 1009.980469,1789.034546 
	C1009.838257,1790.645752 1009.414551,1792.232178 1009.334106,1792.667969 
	C1007.296448,1782.503174 1006.156372,1771.221924 1002.638550,1760.738647 
	C998.596741,1748.693604 992.027405,1737.770508 983.600647,1727.824219 
	C972.357483,1714.553833 958.763672,1705.181152 942.754944,1699.000000 
	C940.707275,1698.209473 938.317505,1698.065918 936.081848,1698.042847 
	C926.582947,1697.944580 917.080505,1698.128540 907.583008,1697.976807 
	C893.996094,1697.759888 880.411377,1697.380981 866.827942,1696.992554 
	C857.740662,1696.732788 848.655945,1696.371460 839.572632,1695.993408 
	C824.234558,1695.355103 808.895630,1694.724976 793.562439,1693.982178 
	C781.720886,1693.408447 769.884583,1692.713013 758.051025,1691.988892 
	C742.459412,1691.034790 726.868286,1690.064819 711.285400,1688.979126 
	C698.355774,1688.078247 685.433472,1687.062012 672.517212,1685.984985 
	C657.338806,1684.719482 642.159424,1683.447388 627.001038,1681.966919 
	C611.399963,1680.443481 595.802979,1678.837891 580.242188,1676.953735 
	C562.637085,1674.821899 545.081421,1672.284546 527.490662,1670.029297 
	C513.757507,1668.268555 499.967102,1666.920776 486.269318,1664.927979 
	C472.973053,1662.993774 459.765045,1660.455444 446.513214,1658.212402 
	C438.049774,1656.779785 429.574524,1655.416748 421.111420,1653.982422 
	C419.855530,1653.769531 418.637085,1653.335449 416.959656,1653.001953 
M1116.502319,1562.000000 
	C1108.917725,1562.334106 1101.334473,1562.909302 1093.748169,1562.956421 
	C1072.585327,1563.088013 1051.421143,1563.031128 1030.257812,1562.966675 
	C1027.139648,1562.957153 1025.409790,1563.098389 1024.814941,1567.254028 
	C1022.614014,1582.627808 1019.561890,1597.877563 1017.106262,1613.218262 
	C1016.511414,1616.934204 1015.929871,1621.188232 1017.122070,1624.566650 
	C1024.564697,1645.658081 1038.383423,1661.798096 1056.988037,1674.007690 
	C1069.017090,1681.901733 1081.597412,1687.681274 1096.579956,1686.066040 
	C1103.288818,1685.342651 1110.075195,1685.346680 1116.825073,1684.995972 
	C1122.910278,1684.679932 1128.991699,1684.282471 1135.078491,1684.003540 
	C1157.329834,1682.983398 1179.585693,1682.056396 1201.833984,1680.973999 
	C1212.510010,1680.454590 1223.172852,1679.663330 1233.841797,1678.999023 
	C1249.927124,1677.997559 1266.016479,1677.056885 1282.096436,1675.975342 
	C1290.106812,1675.436646 1298.110229,1674.745728 1306.098389,1673.939453 
	C1318.275879,1672.710205 1330.433838,1671.287109 1342.606934,1670.012939 
	C1349.765747,1669.263794 1356.963135,1668.838379 1364.098633,1667.921021 
	C1375.698486,1666.430054 1387.250244,1664.566528 1398.844482,1663.028809 
	C1407.570557,1661.871338 1416.372437,1661.242920 1425.067749,1659.906006 
	C1438.667969,1657.814697 1452.220581,1655.399780 1465.768311,1652.982056 
	C1482.315796,1650.028687 1498.936523,1647.382568 1515.344971,1643.780151 
	C1535.761353,1639.297729 1556.037842,1634.149292 1576.293213,1628.969604 
	C1602.450806,1622.280640 1628.020142,1613.791260 1652.321533,1601.911377 
	C1668.362305,1594.069946 1684.340820,1585.868652 1695.356934,1571.064087 
	C1704.322144,1559.015869 1705.641235,1547.346558 1696.922729,1534.567505 
	C1688.836914,1522.715820 1677.056763,1515.001953 1664.820435,1508.014282 
	C1662.792603,1506.856201 1660.357666,1504.989136 1658.430420,1505.318604 
	C1649.080566,1506.916748 1639.854126,1509.221802 1630.556885,1511.145630 
	C1614.439087,1514.480835 1598.341064,1517.933716 1582.159302,1520.930298 
	C1569.413452,1523.290527 1556.551636,1525.023926 1543.745605,1527.062012 
	C1531.419189,1529.023682 1519.128906,1531.243408 1506.766479,1532.940063 
	C1492.724854,1534.867065 1478.616211,1536.301758 1464.545166,1538.019531 
	C1448.541382,1539.973022 1432.562012,1542.136841 1416.543579,1543.958618 
	C1403.064453,1545.491577 1389.553467,1546.765503 1376.040405,1547.972290 
	C1359.878052,1549.415894 1343.704102,1550.738525 1327.524658,1551.977783 
	C1313.112793,1553.081543 1298.688354,1554.023560 1284.266479,1554.993164 
	C1273.766602,1555.699097 1263.265259,1556.386719 1252.759033,1556.987549 
	C1240.093628,1557.711670 1227.425171,1558.392090 1214.753174,1558.988037 
	C1199.254639,1559.716919 1183.755737,1560.492798 1168.248291,1560.964600 
	C1151.337769,1561.479248 1134.417480,1561.668701 1116.502319,1562.000000 
M320.403839,1535.078125 
	C318.610870,1541.364990 315.065582,1547.748291 315.405090,1553.917847 
	C316.031097,1565.293335 323.236450,1574.084717 331.786041,1581.140747 
	C349.368683,1595.652222 369.714355,1605.374390 391.021759,1612.901245 
	C409.150116,1619.305054 427.423309,1625.553223 446.038910,1630.263672 
	C473.661835,1637.253418 501.616241,1642.952393 529.485474,1648.940674 
	C541.806213,1651.588013 554.229004,1653.812622 566.669495,1655.835693 
	C578.855408,1657.817383 591.116150,1659.347412 603.356445,1660.983032 
	C611.589722,1662.083252 619.849304,1662.985474 628.088562,1664.042236 
	C638.091309,1665.325195 648.074280,1666.767700 658.086487,1667.969238 
	C665.064758,1668.806763 672.083557,1669.300781 679.073975,1670.044922 
	C691.079651,1671.323364 703.065125,1672.804077 715.082275,1673.958862 
	C724.230225,1674.837891 733.419556,1675.276978 742.580811,1676.029785 
	C758.089355,1677.304077 773.583130,1678.762085 789.096680,1679.968750 
	C799.752075,1680.797485 810.425720,1681.424561 821.099731,1681.975586 
	C835.762329,1682.732544 850.427795,1683.501831 865.101624,1683.955566 
	C882.010559,1684.478271 898.929932,1684.663086 915.844727,1684.993652 
	C916.511047,1685.006714 917.216370,1684.868774 917.838135,1685.039429 
	C930.666260,1688.562500 942.403870,1684.826294 953.351135,1678.776733 
	C969.828247,1669.671509 983.419312,1657.105835 993.324463,1641.020264 
	C998.288391,1632.958984 1002.538940,1624.715576 1000.164185,1614.184082 
	C996.369141,1597.354126 993.770935,1580.254150 990.434998,1562.000000 
	C962.655457,1562.000000 934.765137,1562.082275 906.875732,1561.954102 
	C897.458008,1561.910767 888.043213,1561.318359 878.626099,1561.004517 
	C858.293823,1560.326904 837.959900,1559.696411 817.628906,1558.982300 
	C811.374451,1558.762695 805.127686,1558.326660 798.876709,1558.003174 
	C785.875854,1557.330688 772.876892,1556.618286 759.872742,1556.016724 
	C750.793640,1555.596802 741.705261,1555.378906 732.624817,1554.984619 
	C726.870361,1554.734619 721.113464,1554.440186 715.374084,1553.966919 
	C700.033325,1552.702148 684.703735,1551.303345 669.365234,1550.010986 
	C660.703003,1549.280884 652.022339,1548.760620 643.367249,1547.959351 
	C630.024170,1546.723877 616.695923,1545.327515 603.361328,1544.000610 
	C596.528564,1543.320801 589.684082,1542.742310 582.865601,1541.941406 
	C572.357605,1540.707275 561.871094,1539.291138 551.368469,1538.009399 
	C542.468140,1536.923218 533.538757,1536.057983 524.656921,1534.841797 
	C513.886963,1533.366943 503.159271,1531.586304 492.402679,1530.010742 
	C480.511902,1528.268921 468.575226,1526.814453 456.720764,1524.857666 
	C444.285492,1522.804932 431.899292,1520.429077 419.536530,1517.968994 
	C403.878540,1514.853027 388.272949,1511.474731 372.630585,1508.279175 
	C365.351074,1506.792114 357.973877,1502.945435 350.889252,1508.985718 
	C349.544037,1510.132446 347.966400,1511.023560 346.438446,1511.936279 
	C336.509094,1517.867676 327.875427,1525.250122 320.403839,1535.078125 
M1068.001709,1392.431396 
	C1066.643188,1396.494629 1065.284668,1400.557861 1063.465210,1406.000000 
	C1084.850342,1406.000000 1105.423462,1405.916504 1125.995361,1406.045898 
	C1133.081177,1406.090454 1140.161865,1406.714722 1147.248291,1406.988770 
	C1165.248169,1407.684937 1183.252441,1408.272461 1201.250000,1409.019409 
	C1214.922607,1409.586792 1228.590210,1410.288330 1242.255615,1411.012207 
	C1253.594727,1411.612793 1264.928955,1412.310181 1276.262817,1413.006470 
	C1286.600220,1413.641479 1296.933594,1414.341553 1307.269897,1414.996338 
	C1323.188843,1416.004883 1339.109741,1416.984131 1355.027588,1418.009155 
	C1359.282104,1418.283203 1363.537109,1418.597534 1367.777588,1419.033203 
	C1380.283936,1420.317871 1392.780273,1421.701416 1405.286255,1422.988770 
	C1412.609863,1423.742920 1419.957764,1424.273438 1427.271606,1425.108276 
	C1437.787354,1426.308228 1448.274048,1427.763916 1458.788574,1428.975464 
	C1465.935181,1429.798950 1473.139282,1430.165771 1480.262329,1431.141235 
	C1490.703125,1432.570801 1501.077637,1434.479370 1511.511475,1435.966553 
	C1521.981323,1437.458984 1532.545532,1438.350220 1542.968262,1440.101196 
	C1561.144409,1443.154785 1579.277954,1446.489990 1597.365845,1450.032349 
	C1617.623169,1453.999390 1637.807739,1458.338135 1658.033936,1462.466064 
	C1659.020386,1462.667358 1660.316772,1462.761719 1661.108398,1462.294922 
	C1672.466797,1455.596802 1683.922852,1448.955444 1692.660522,1438.792847 
	C1703.395752,1426.306519 1706.482666,1415.186523 1697.761475,1401.063843 
	C1693.579346,1394.291626 1687.668213,1388.074097 1681.286987,1383.270264 
	C1663.168823,1369.630859 1642.425293,1360.782715 1621.255005,1353.011353 
	C1590.287476,1341.643555 1558.317139,1333.727661 1526.275879,1326.185303 
	C1510.722534,1322.523926 1494.941284,1319.754883 1479.179321,1317.075195 
	C1461.593018,1314.085449 1443.916870,1311.620483 1426.270142,1308.991455 
	C1408.122192,1306.287598 1389.988159,1303.466431 1371.799805,1301.062622 
	C1356.923096,1299.096313 1341.987671,1297.543823 1327.055176,1296.037598 
	C1312.234619,1294.542603 1297.388306,1293.295898 1282.547119,1292.012817 
	C1270.299194,1290.953857 1258.050659,1289.874390 1245.786865,1289.032715 
	C1229.375488,1287.906250 1212.953247,1286.928711 1196.528076,1286.021973 
	C1182.532227,1285.249390 1168.530273,1284.548706 1154.522949,1284.035156 
	C1141.112183,1283.543701 1127.691895,1283.228882 1114.273682,1283.140625 
	C1112.681763,1283.130127 1110.280273,1284.663086 1109.603271,1286.111328 
	C1103.898804,1298.315430 1097.972168,1310.459839 1093.140991,1323.018066 
	C1084.401123,1345.736450 1076.371216,1368.728027 1068.001709,1392.431396 
M623.503357,1422.000000 
	C624.502197,1421.999756 625.510559,1422.089478 626.498535,1421.985718 
	C639.001770,1420.672974 651.489380,1419.193237 664.006897,1418.037842 
	C676.743408,1416.862183 689.505493,1415.953613 702.262512,1415.011230 
	C716.510376,1413.958740 730.761108,1412.937256 745.018127,1412.018799 
	C756.846375,1411.256714 768.683044,1410.616455 780.520386,1410.008301 
	C794.518188,1409.288940 808.519470,1408.632446 822.521790,1408.005859 
	C831.268921,1407.614502 840.018860,1407.258423 848.770996,1407.011841 
	C862.684448,1406.619629 876.599976,1406.293945 890.516052,1406.009155 
	C908.929199,1405.632446 927.343872,1405.325317 945.757324,1404.963013 
	C946.155396,1404.955200 946.547485,1404.643188 947.170959,1404.374634 
	C946.066284,1401.838623 944.883728,1399.557251 944.054016,1397.154053 
	C931.837463,1361.774658 916.729858,1327.645386 899.754639,1294.316040 
	C894.056213,1283.127563 894.117615,1283.303955 881.589600,1283.955933 
	C864.933655,1284.822754 848.255432,1285.255127 831.593933,1286.028564 
	C820.419189,1286.547363 809.257263,1287.341675 798.088806,1287.999512 
	C781.005005,1289.005737 763.919739,1289.988037 746.836731,1291.008057 
	C742.082642,1291.291992 737.320862,1291.542725 732.585999,1292.033813 
	C717.161072,1293.633423 701.752136,1295.387329 686.326843,1296.983032 
	C675.755676,1298.076538 665.139221,1298.775513 654.593567,1300.063843 
	C640.073242,1301.837769 625.586609,1303.905884 611.111084,1306.023071 
	C593.617065,1308.581543 576.104065,1311.057007 558.682556,1314.052734 
	C537.025146,1317.776733 515.324463,1321.415039 493.878784,1326.158936 
	C470.820404,1331.259521 447.801147,1336.820435 425.205170,1343.639648 
	C406.690033,1349.227417 388.713074,1356.683716 370.697021,1363.815552 
	C353.692902,1370.546753 338.013275,1379.723511 325.423157,1393.208618 
	C313.763824,1405.696533 311.183380,1419.229004 321.506104,1433.916626 
	C329.147125,1444.788452 339.567169,1452.641479 351.135468,1458.991089 
	C353.778595,1460.441895 356.828522,1463.135986 359.233002,1462.704468 
	C371.892303,1460.432861 384.374542,1457.197388 396.976562,1454.576904 
	C409.935425,1451.882324 422.942108,1449.404541 435.964203,1447.031250 
	C446.480164,1445.114990 457.043640,1443.454590 467.597870,1441.753784 
	C479.761475,1439.793823 491.920044,1437.788574 504.114471,1436.037476 
	C514.747375,1434.510620 525.426941,1433.308838 536.086121,1431.965210 
	C546.582214,1430.642212 557.069336,1429.240601 567.578186,1428.027954 
	C574.726624,1427.203003 581.916260,1426.738281 589.068787,1425.944458 
	C600.243347,1424.704468 611.401978,1423.322021 623.503357,1422.000000 
M1230.590820,1544.000000 
	C1234.342529,1543.666382 1238.089111,1543.255127 1241.846802,1543.013428 
	C1252.847046,1542.306030 1263.852295,1541.678467 1274.854126,1540.994385 
	C1279.773682,1540.688599 1284.703491,1540.458008 1289.604370,1539.956299 
	C1301.782227,1538.710083 1313.938232,1537.248291 1326.118530,1536.027100 
	C1334.270996,1535.209717 1342.477661,1534.890503 1350.610596,1533.929077 
	C1362.883911,1532.478271 1375.103271,1530.578003 1387.365356,1529.024536 
	C1398.846802,1527.570068 1410.394287,1526.591064 1421.839600,1524.906250 
	C1435.615845,1522.878418 1449.325073,1520.383667 1463.044922,1517.986450 
	C1478.177979,1515.342285 1493.379395,1512.994141 1508.390259,1509.768921 
	C1529.629639,1505.205322 1550.772583,1500.160156 1571.856934,1494.919922 
	C1583.734009,1491.968262 1595.411011,1488.211426 1607.966675,1484.589722 
	C1606.711304,1483.575806 1606.415894,1483.156982 1606.036255,1483.056396 
	C1581.972778,1476.677124 1558.002441,1469.908081 1533.802368,1464.095093 
	C1513.265137,1459.162231 1492.520752,1455.022705 1471.756958,1451.124512 
	C1456.460205,1448.252808 1440.990967,1446.291870 1425.586426,1444.006348 
	C1409.518677,1441.622314 1393.459717,1439.156616 1377.353638,1437.059082 
	C1362.636597,1435.142700 1347.880615,1433.472900 1333.107178,1432.055298 
	C1316.792725,1430.489746 1300.440308,1429.312866 1284.100830,1428.012695 
	C1278.855347,1427.595337 1273.590698,1427.411987 1268.347778,1426.969238 
	C1253.170776,1425.687744 1238.008789,1424.218628 1222.824341,1423.036865 
	C1211.836060,1422.181885 1200.827637,1421.522583 1189.816650,1421.034668 
	C1171.986206,1420.244751 1154.144897,1419.696899 1136.310913,1418.982178 
	C1130.888062,1418.764771 1125.477783,1418.153809 1120.054932,1418.035034 
	C1100.972900,1417.616943 1081.888428,1417.290039 1062.803101,1417.106323 
	C1061.616455,1417.094849 1059.651978,1418.386230 1059.337280,1419.451782 
	C1055.746826,1431.611938 1052.080322,1443.766113 1049.072144,1456.077881 
	C1043.761841,1477.812866 1038.819458,1499.638916 1033.873779,1521.461060 
	C1031.681274,1531.135986 1029.855957,1540.894043 1027.784790,1551.000000 
	C1030.063843,1551.000000 1031.713135,1551.026733 1033.361328,1550.995850 
	C1050.945312,1550.666870 1068.530151,1550.368286 1086.112915,1549.979370 
	C1097.865479,1549.719482 1109.615234,1549.326904 1121.366211,1548.994629 
	C1133.117310,1548.662476 1144.870239,1548.387573 1156.618408,1547.973877 
	C1161.708740,1547.794678 1166.786011,1547.276123 1171.874268,1547.005737 
	C1191.127441,1545.982788 1210.382446,1544.998657 1230.590820,1544.000000 
M974.996765,1496.570068 
	C974.688293,1495.824463 974.305054,1495.100464 974.082275,1494.330078 
	C967.041138,1469.979858 959.999695,1445.629639 953.007446,1421.265259 
	C952.123047,1418.183472 950.571045,1416.554810 947.075684,1416.950439 
	C942.347656,1417.485474 937.584900,1417.833252 932.828491,1417.975952 
	C918.915466,1418.393433 904.997009,1418.627686 891.083008,1419.015137 
	C881.830933,1419.272827 872.579834,1419.605103 863.333496,1420.020142 
	C849.830017,1420.626099 836.328613,1421.289673 822.831177,1422.017578 
	C811.826111,1422.611206 800.825134,1423.291016 789.827576,1424.011597 
	C775.238159,1424.967651 760.653625,1425.998779 746.067261,1427.000977 
	C736.400574,1427.665039 726.733826,1428.328369 717.067993,1429.004761 
	C712.317810,1429.337158 707.552490,1429.544800 702.824097,1430.076782 
	C691.977966,1431.297119 681.159607,1432.765259 670.312439,1433.975464 
	C660.244385,1435.098755 650.127869,1435.814331 640.079590,1437.081543 
	C628.806885,1438.503418 617.594910,1440.400635 606.341309,1441.982910 
	C596.195923,1443.409668 585.993225,1444.462158 575.882385,1446.092651 
	C562.950745,1448.177979 550.077148,1450.630371 537.194580,1453.011108 
	C522.580566,1455.712036 507.909821,1458.169556 493.400116,1461.354248 
	C477.384918,1464.869385 461.466492,1468.870972 445.615845,1473.074951 
	C433.943542,1476.170776 422.447937,1479.932617 410.233643,1483.589233 
	C411.300629,1484.432983 411.598236,1484.840454 411.978882,1484.944580 
	C431.801056,1490.368652 451.489319,1496.375244 471.495026,1501.011475 
	C495.686279,1506.617554 520.085449,1511.393433 544.508972,1515.910156 
	C566.809204,1520.034302 589.234375,1523.514404 611.657166,1526.932617 
	C626.932312,1529.261230 642.278137,1531.167725 657.629028,1532.946167 
	C673.854614,1534.826050 690.113708,1536.437012 706.376648,1537.968628 
	C722.033630,1539.443115 737.707520,1540.753418 753.386658,1541.973267 
	C767.796997,1543.094482 782.221680,1544.035645 796.644592,1544.987915 
	C807.642273,1545.713989 818.642395,1546.426880 829.649902,1546.976807 
	C844.812561,1547.734497 859.982117,1548.358887 875.150818,1548.990479 
	C884.398560,1549.375488 893.648743,1549.713501 902.900391,1549.988403 
	C915.648132,1550.367432 928.396729,1550.768066 941.147949,1550.967896 
	C951.309998,1551.127197 961.476501,1551.000000 971.641052,1551.000000 
	C977.049255,1551.000000 982.457397,1551.000000 988.380066,1551.000000 
	C983.805176,1532.679077 979.403564,1515.052246 974.996765,1496.570068 
M810.754639,787.155396 
	C803.407593,813.416870 802.592407,840.191040 806.455200,866.899597 
	C813.786865,917.593628 837.364258,959.854614 877.035339,992.157227 
	C928.295349,1033.896240 986.818298,1047.101196 1051.273071,1032.114990 
	C1070.337646,1027.682251 1088.783691,1020.632812 1108.591553,1019.450623 
	C1120.797119,1018.722107 1132.931885,1018.502625 1144.711182,1022.311707 
	C1149.979736,1024.015259 1154.843018,1026.479858 1157.039062,1032.307617 
	C1157.415161,1033.305664 1159.425293,1033.687866 1161.312012,1034.689941 
	C1161.312012,1031.517334 1161.312012,1029.698486 1161.312134,1027.879639 
	C1161.312988,989.718750 1161.278442,951.557800 1161.331055,913.396973 
	C1161.354980,896.121521 1167.179321,881.746765 1182.746094,872.662903 
	C1191.101318,867.787354 1200.315186,865.657166 1209.931396,865.392578 
	C1213.121094,865.304932 1214.003052,864.134155 1212.942993,861.230225 
	C1147.512573,861.230225 1082.243652,861.230225 1017.070435,861.230225 
	C1015.907043,864.863708 1017.799988,865.094604 1020.547852,865.295837 
	C1052.575562,867.641418 1068.166138,884.525391 1068.167847,916.696411 
	C1068.169556,949.358154 1068.096924,982.020264 1068.271851,1014.681091 
	C1068.290527,1018.185120 1067.204346,1019.888733 1064.025513,1020.707825 
	C1051.332886,1023.978333 1038.761475,1027.827759 1025.941040,1030.473145 
	C991.838928,1037.509766 963.129028,1027.565796 940.169983,1001.490417 
	C925.963379,985.355530 917.237793,966.205872 910.948730,945.848022 
	C901.984375,916.830261 898.682068,886.960327 897.513611,856.760315 
	C896.169434,822.017151 897.834473,787.488403 905.050903,753.388062 
	C910.427124,727.983154 918.673645,703.624329 934.328491,682.531860 
	C953.142761,657.182556 977.879700,642.361389 1010.228516,644.354126 
	C1023.738464,645.186462 1037.264038,648.088135 1050.443726,651.398254 
	C1068.659546,655.973267 1085.297485,664.262817 1099.935059,676.300232 
	C1121.693359,694.193420 1132.242554,717.576050 1134.022095,745.304993 
	C1134.335693,750.191467 1134.273926,750.195435 1138.423340,749.493530 
	C1138.423340,714.069946 1138.423340,678.624512 1138.423340,643.179016 
	C1138.041748,642.814270 1137.660156,642.449463 1137.278564,642.084717 
	C1136.172974,643.179382 1134.405273,644.104126 1134.073242,645.397339 
	C1132.375000,652.013000 1127.934082,655.820068 1121.625488,656.837219 
	C1116.109009,657.726562 1110.192627,658.412598 1104.803955,657.371399 
	C1090.969482,654.698364 1077.140991,651.648865 1063.649048,647.615906 
	C1025.649902,636.257141 987.419434,634.735474 949.503967,646.293762 
	C878.380859,667.975159 832.504822,715.306702 810.754639,787.155396 
z"/>
<path fill="#FF751F" opacity="1.000000" stroke="none" 
	d="
M599.000000,1795.000000 
	C750.818542,1795.000000 902.137085,1794.948486 1053.455444,1795.092285 
	C1066.376953,1795.104492 1078.319092,1799.548828 1087.734619,1808.486328 
	C1096.095581,1816.422607 1097.947510,1827.580200 1088.631958,1836.952148 
	C1069.698608,1856.000366 1046.763916,1867.967285 1021.169861,1874.909790 
	C1007.552917,1878.603394 993.615234,1881.167847 979.747437,1883.855713 
	C974.770752,1884.820190 969.574524,1884.954956 964.478394,1884.956177 
	C763.164734,1885.007690 561.851013,1884.907104 360.537628,1885.132812 
	C338.563171,1885.157471 317.492828,1889.982788 298.972534,1902.964966 
	C289.651031,1909.499023 289.877258,1917.893066 300.304779,1922.499878 
	C305.082031,1924.610474 310.667450,1925.856567 315.887604,1925.860596 
	C528.700012,1926.023682 741.512512,1926.001221 954.325012,1925.993774 
	C959.711121,1925.993530 964.792786,1926.863403 968.588135,1931.118286 
	C971.189941,1934.034790 971.554321,1937.024048 968.498840,1940.040527 
	C960.920227,1947.521851 951.471069,1951.662109 941.393127,1953.808472 
	C932.634094,1955.673828 923.547058,1956.866089 914.603760,1956.872803 
	C696.125244,1957.035767 477.646545,1957.094360 259.168182,1956.857056 
	C236.809357,1956.832764 215.356522,1951.336060 197.006195,1937.846313 
	C185.578140,1929.445068 176.995605,1918.763062 177.951614,1903.107300 
	C178.411179,1895.581543 181.278992,1888.833984 186.156570,1883.680054 
	C194.085297,1875.302002 202.941010,1867.780029 211.614258,1860.133667 
	C219.608505,1853.086060 227.659134,1846.067627 236.085312,1839.554321 
	C245.096222,1832.588623 254.205551,1825.616943 263.931122,1819.738281 
	C281.477356,1809.132446 300.968384,1803.066772 320.939423,1799.292358 
	C334.423950,1796.744019 348.311279,1795.248047 362.027496,1795.182739 
	C440.850159,1794.807373 519.675537,1795.000000 599.000000,1795.000000 
z"/>
<path fill="#FAFAFA" opacity="1.000000" stroke="none" 
	d="
M680.275757,331.222046 
	C690.109314,326.127502 694.354675,316.590790 699.799133,308.347412 
	C711.492493,290.642853 722.446777,272.458405 729.349304,252.191971 
	C735.426453,234.348785 735.093628,216.602020 728.486816,198.971558 
	C722.568359,183.177811 713.664429,169.017288 703.834351,155.482498 
	C694.969055,143.276138 685.428833,131.560181 676.214050,119.606445 
	C675.937988,119.248268 675.973999,118.649506 675.638733,117.160034 
	C677.332458,117.994827 678.538452,118.445107 679.592102,119.129852 
	C700.235107,132.545837 720.170288,147.106247 742.747192,157.356445 
	C755.800720,163.282928 769.225708,168.177521 783.657959,167.844727 
	C801.286926,167.438187 817.358643,161.049026 832.344666,152.091095 
	C853.672668,139.342255 873.387146,124.340652 892.321045,108.288803 
	C892.605408,108.047729 893.186890,108.156952 894.629944,107.980202 
	C890.198242,114.511703 885.961609,120.266029 882.239929,126.336128 
	C872.573242,142.102585 862.505798,157.672455 853.795166,173.960861 
	C846.458984,187.679276 841.681213,202.583771 842.071899,218.489258 
	C842.335632,229.227142 844.858643,239.636444 849.191040,249.452301 
	C858.179993,269.818787 871.120728,287.720428 884.693298,305.195099 
	C890.453552,312.611389 896.224609,320.019287 901.336121,328.262543 
	C895.347778,324.132233 889.539062,319.707184 883.336365,315.928833 
	C866.993835,305.973816 850.833435,295.629486 833.926270,286.719574 
	C819.654175,279.198334 804.102112,274.824921 787.591553,276.033478 
	C776.879333,276.817627 766.763184,280.044464 757.040710,284.473969 
	C737.343750,293.447723 720.602966,306.980682 703.009460,319.259827 
	C690.076355,328.286224 683.333618,341.743774 675.287598,354.319672 
	C665.757019,369.215942 657.026245,384.530487 651.703979,401.608398 
	C645.304077,422.144348 646.873535,441.970612 656.055420,461.232178 
	C665.067627,480.137909 676.743896,497.343353 689.971069,513.552490 
	C695.596558,520.446106 700.827576,527.661682 705.741150,535.599243 
	C703.806763,534.547546 701.802307,533.605957 699.948914,532.427002 
	C684.188477,522.401184 668.742249,511.838684 652.606323,502.461792 
	C642.971252,496.862671 632.535400,492.325378 621.984680,488.688293 
	C603.965332,482.476624 585.935364,483.739594 568.194336,490.924652 
	C549.436584,498.521545 533.065186,509.855194 517.260559,522.201721 
	C512.288513,526.085754 506.503632,529.124207 502.189301,533.606934 
	C496.560699,539.455261 491.382172,545.962585 487.153595,552.885010 
	C478.527344,567.006592 470.101501,581.311218 462.662811,596.079224 
	C456.383179,608.546204 452.597961,622.087830 453.095551,636.269226 
	C453.494110,647.627930 456.238312,658.589172 460.996918,668.983887 
	C468.768768,685.960876 479.286743,701.213806 490.527649,716.008240 
	C497.492004,725.174255 504.524506,734.288452 511.049591,744.200867 
	C509.358765,743.296875 507.544220,742.566528 505.995880,741.462708 
	C486.165039,727.325439 465.830261,713.971924 443.821381,703.454102 
	C428.171814,695.975342 411.596954,692.061462 394.132507,694.064087 
	C379.812469,695.706116 366.929474,701.683289 354.684631,708.897888 
	C333.268158,721.516296 313.690247,736.706970 294.710693,752.693481 
	C294.418091,752.940002 293.843811,752.851990 292.375305,753.077759 
	C296.927460,746.401855 301.267212,740.529724 305.087524,734.337158 
	C314.375916,719.280823 323.999878,704.387268 332.395905,688.837952 
	C339.943756,674.859497 344.917206,659.692383 344.883575,643.549133 
	C344.859131,631.823669 341.785645,620.559692 336.973328,609.843506 
	C328.848450,591.750732 317.436371,575.718689 305.506622,560.027832 
	C298.754944,551.147583 291.883453,542.358459 285.639496,532.809509 
	C291.532471,536.811829 297.280304,541.050781 303.346649,544.770386 
	C319.111816,554.436890 334.696869,564.469055 350.958282,573.233765 
	C366.542145,581.633362 383.491791,586.709595 401.445984,584.779846 
	C409.791534,583.882874 418.268280,581.538574 426.017975,578.268372 
	C448.822052,568.645691 468.256348,553.557861 487.885193,538.783203 
	C497.880859,531.259399 502.987183,520.248291 509.613495,510.421600 
	C516.777039,499.798218 522.828491,488.336060 528.487732,476.809052 
	C536.013916,461.479279 540.667603,445.239258 538.935425,427.894562 
	C537.521667,413.737335 532.571655,400.544159 524.972168,388.673248 
	C514.717346,372.654510 503.719513,357.104156 492.789246,341.529114 
	C489.072662,336.233154 484.595093,331.471222 480.465271,326.465271 
	C480.722717,326.113495 480.980164,325.761688 481.237640,325.409912 
	C483.189667,326.469971 485.282166,327.334442 487.072174,328.620117 
	C506.202942,342.360504 525.926147,355.140839 547.092957,365.554749 
	C563.306335,373.531616 580.433777,377.829437 598.522461,375.810791 
	C605.591980,375.021881 612.695862,372.773804 619.315002,370.050323 
	C638.243530,362.262115 654.937256,350.643402 671.158997,338.336212 
	C674.132751,336.080078 677.060669,333.763519 680.275757,331.222046 
z"/>
<path fill="#FF751F" opacity="1.000000" stroke="none" 
	d="
M1303.000000,1957.000000 
	C1212.028076,1957.000000 1121.555908,1957.061890 1031.084595,1956.810669 
	C1026.733154,1956.798584 1021.767944,1954.892700 1018.194214,1952.328003 
	C1013.377930,1948.871704 1013.908875,1944.538940 1018.650269,1940.915405 
	C1027.459961,1934.182495 1037.439819,1929.721069 1048.353760,1928.135742 
	C1057.442627,1926.815552 1066.701294,1926.090088 1075.885376,1926.084839 
	C1272.157959,1925.972900 1468.430420,1925.993652 1664.703003,1926.033081 
	C1670.287109,1926.034180 1675.648560,1927.034180 1679.428467,1931.873901 
	C1682.173218,1935.388550 1680.702637,1938.671143 1678.066772,1940.866211 
	C1668.904053,1948.496338 1658.259155,1953.584351 1646.442505,1954.836426 
	C1633.334351,1956.225342 1620.091431,1956.890625 1606.905762,1956.911621 
	C1505.770752,1957.072510 1404.635254,1957.000000 1303.000000,1957.000000 
z"/>
<path fill="#FF751F" opacity="1.000000" stroke="none" 
	d="
M1684.185547,1884.006592 
	C1681.459473,1884.341187 1679.182373,1885.035645 1676.938965,1884.939697 
	C1664.259399,1884.397827 1651.484009,1884.437988 1638.947266,1882.750122 
	C1629.268677,1881.447266 1620.878784,1876.485107 1615.213623,1867.799438 
	C1610.926514,1861.226440 1611.667114,1853.864380 1616.157593,1848.467651 
	C1624.804565,1838.075073 1635.633667,1830.141724 1647.012329,1823.060303 
	C1663.006592,1813.105835 1680.383057,1806.188965 1698.725342,1802.104370 
	C1710.623047,1799.455200 1722.723633,1797.363159 1734.846436,1796.178711 
	C1746.690186,1795.021484 1758.699097,1794.736694 1770.595703,1795.167480 
	C1782.530640,1795.599731 1793.724365,1799.097656 1802.492920,1807.988403 
	C1809.872681,1815.471069 1810.005493,1826.451050 1802.650879,1833.828003 
	C1781.778442,1854.764404 1756.728271,1868.309692 1728.316528,1876.090820 
	C1713.967529,1880.020508 1699.547852,1883.249634 1684.185547,1884.006592 
z"/>
<path fill="#FF751F" opacity="1.000000" stroke="none" 
	d="
M1392.776245,1882.343994 
	C1384.244995,1879.778931 1376.872314,1876.180542 1371.962280,1868.800293 
	C1366.678711,1860.858521 1367.914917,1850.324097 1375.231934,1844.410034 
	C1384.251343,1837.119873 1393.104858,1829.492798 1402.805420,1823.207764 
	C1417.480957,1813.699463 1433.864990,1807.750244 1450.676392,1802.978394 
	C1475.787109,1795.850830 1501.465942,1793.857666 1527.344727,1795.192383 
	C1538.967285,1795.791870 1550.127197,1799.280396 1558.695190,1808.178955 
	C1565.978027,1815.742920 1565.902344,1826.460938 1558.478027,1834.036865 
	C1538.935913,1853.978149 1515.366699,1867.257202 1488.720947,1874.804443 
	C1475.787964,1878.467651 1462.444458,1881.144775 1449.104492,1882.780029 
	C1435.374756,1884.463135 1421.427979,1884.595947 1407.565796,1884.857910 
	C1402.762207,1884.948608 1397.927490,1883.394409 1392.776245,1882.343994 
z"/>
<path fill="#FF751F" opacity="1.000000" stroke="none" 
	d="
M1257.096191,1795.000000 
	C1265.910767,1795.000000 1274.265503,1794.564575 1282.557007,1795.103760 
	C1294.488647,1795.879883 1305.574829,1799.188354 1314.490845,1807.921509 
	C1322.050293,1815.326416 1321.186768,1827.764771 1314.498535,1834.269897 
	C1290.272583,1857.832642 1261.314087,1871.666504 1228.668457,1879.148071 
	C1207.129150,1884.084351 1185.428711,1885.743774 1163.512451,1884.880615 
	C1150.903931,1884.384033 1139.132568,1880.791748 1129.867798,1871.381958 
	C1121.809937,1863.198120 1123.561646,1851.057007 1131.724121,1844.654785 
	C1140.738403,1837.584473 1149.112427,1829.576050 1158.646729,1823.319214 
	C1172.834351,1814.008545 1188.721191,1808.069580 1205.054810,1803.450317 
	C1221.921143,1798.680664 1239.148071,1796.135376 1257.096191,1795.000000 
z"/>
<path fill="#FAFAFA" opacity="1.000000" stroke="none" 
	d="
M512.628906,745.539001 
	C512.257812,745.213318 512.203796,744.644653 512.149841,744.075989 
	C512.415283,744.482666 512.680664,744.889343 512.628906,745.539001 
z"/>
<path fill="#FAFAFA" opacity="1.000000" stroke="none" 
	d="
M707.541626,536.661682 
	C706.858276,536.667297 706.459045,536.380432 706.059875,536.093506 
	C706.648560,536.185364 707.237183,536.277283 707.541626,536.661682 
z"/>
<path fill="#FAFAFA" opacity="1.000000" stroke="none" 
	d="
M479.498413,324.917114 
	C479.677917,324.511688 480.165131,324.358551 480.663239,324.260773 
	C480.689423,324.255615 480.807800,324.720306 480.883240,324.966248 
	C480.524963,325.037781 480.166718,325.109344 479.498413,324.917114 
z"/>
<path fill="#FAFAFA" opacity="1.000000" stroke="none" 
	d="
M674.466187,116.342590 
	C675.144470,116.337631 675.540344,116.622360 675.936218,116.907089 
	C675.352051,116.815491 674.767944,116.723885 674.466187,116.342590 
z"/>
<path fill="#000000" opacity="1.000000" stroke="none" 
	d="
M1117.001953,1562.000000 
	C1134.417480,1561.668701 1151.337769,1561.479248 1168.248291,1560.964600 
	C1183.755737,1560.492798 1199.254639,1559.716919 1214.753174,1558.988037 
	C1227.425171,1558.392090 1240.093628,1557.711670 1252.759033,1556.987549 
	C1263.265259,1556.386719 1273.766602,1555.699097 1284.266479,1554.993164 
	C1298.688354,1554.023560 1313.112793,1553.081543 1327.524658,1551.977783 
	C1343.704102,1550.738525 1359.878052,1549.415894 1376.040405,1547.972290 
	C1389.553467,1546.765503 1403.064453,1545.491577 1416.543579,1543.958618 
	C1432.562012,1542.136841 1448.541382,1539.973022 1464.545166,1538.019531 
	C1478.616211,1536.301758 1492.724854,1534.867065 1506.766479,1532.940063 
	C1519.128906,1531.243408 1531.419189,1529.023682 1543.745605,1527.062012 
	C1556.551636,1525.023926 1569.413452,1523.290527 1582.159302,1520.930298 
	C1598.341064,1517.933716 1614.439087,1514.480835 1630.556885,1511.145630 
	C1639.854126,1509.221802 1649.080566,1506.916748 1658.430420,1505.318604 
	C1660.357666,1504.989136 1662.792603,1506.856201 1664.820435,1508.014282 
	C1677.056763,1515.001953 1688.836914,1522.715820 1696.922729,1534.567505 
	C1705.641235,1547.346558 1704.322144,1559.015869 1695.356934,1571.064087 
	C1684.340820,1585.868652 1668.362305,1594.069946 1652.321533,1601.911377 
	C1628.020142,1613.791260 1602.450806,1622.280640 1576.293213,1628.969604 
	C1556.037842,1634.149292 1535.761353,1639.297729 1515.344971,1643.780151 
	C1498.936523,1647.382568 1482.315796,1650.028687 1465.768311,1652.982056 
	C1452.220581,1655.399780 1438.667969,1657.814697 1425.067749,1659.906006 
	C1416.372437,1661.242920 1407.570557,1661.871338 1398.844482,1663.028809 
	C1387.250244,1664.566528 1375.698486,1666.430054 1364.098633,1667.921021 
	C1356.963135,1668.838379 1349.765747,1669.263794 1342.606934,1670.012939 
	C1330.433838,1671.287109 1318.275879,1672.710205 1306.098389,1673.939453 
	C1298.110229,1674.745728 1290.106812,1675.436646 1282.096436,1675.975342 
	C1266.016479,1677.056885 1249.927124,1677.997559 1233.841797,1678.999023 
	C1223.172852,1679.663330 1212.510010,1680.454590 1201.833984,1680.973999 
	C1179.585693,1682.056396 1157.329834,1682.983398 1135.078491,1684.003540 
	C1128.991699,1684.282471 1122.910278,1684.679932 1116.825073,1684.995972 
	C1110.075195,1685.346680 1103.288818,1685.342651 1096.579956,1686.066040 
	C1081.597412,1687.681274 1069.017090,1681.901733 1056.988037,1674.007690 
	C1038.383423,1661.798096 1024.564697,1645.658081 1017.122070,1624.566650 
	C1015.929871,1621.188232 1016.511414,1616.934204 1017.106262,1613.218262 
	C1019.561890,1597.877563 1022.614014,1582.627808 1024.814941,1567.254028 
	C1025.409790,1563.098389 1027.139648,1562.957153 1030.257812,1562.966675 
	C1051.421143,1563.031128 1072.585327,1563.088013 1093.748169,1562.956421 
	C1101.334473,1562.909302 1108.917725,1562.334106 1117.001953,1562.000000 
z"/>
<path fill="#000000" opacity="1.000000" stroke="none" 
	d="
M320.680237,1534.822754 
	C327.875427,1525.250122 336.509094,1517.867676 346.438446,1511.936279 
	C347.966400,1511.023560 349.544037,1510.132446 350.889252,1508.985718 
	C357.973877,1502.945435 365.351074,1506.792114 372.630585,1508.279175 
	C388.272949,1511.474731 403.878540,1514.853027 419.536530,1517.968994 
	C431.899292,1520.429077 444.285492,1522.804932 456.720764,1524.857666 
	C468.575226,1526.814453 480.511902,1528.268921 492.402679,1530.010742 
	C503.159271,1531.586304 513.886963,1533.366943 524.656921,1534.841797 
	C533.538757,1536.057983 542.468140,1536.923218 551.368469,1538.009399 
	C561.871094,1539.291138 572.357605,1540.707275 582.865601,1541.941406 
	C589.684082,1542.742310 596.528564,1543.320801 603.361328,1544.000610 
	C616.695923,1545.327515 630.024170,1546.723877 643.367249,1547.959351 
	C652.022339,1548.760620 660.703003,1549.280884 669.365234,1550.010986 
	C684.703735,1551.303345 700.033325,1552.702148 715.374084,1553.966919 
	C721.113464,1554.440186 726.870361,1554.734619 732.624817,1554.984619 
	C741.705261,1555.378906 750.793640,1555.596802 759.872742,1556.016724 
	C772.876892,1556.618286 785.875854,1557.330688 798.876709,1558.003174 
	C805.127686,1558.326660 811.374451,1558.762695 817.628906,1558.982300 
	C837.959900,1559.696411 858.293823,1560.326904 878.626099,1561.004517 
	C888.043213,1561.318359 897.458008,1561.910767 906.875732,1561.954102 
	C934.765137,1562.082275 962.655457,1562.000000 990.434998,1562.000000 
	C993.770935,1580.254150 996.369141,1597.354126 1000.164185,1614.184082 
	C1002.538940,1624.715576 998.288391,1632.958984 993.324463,1641.020264 
	C983.419312,1657.105835 969.828247,1669.671509 953.351135,1678.776733 
	C942.403870,1684.826294 930.666260,1688.562500 917.838135,1685.039429 
	C917.216370,1684.868774 916.511047,1685.006714 915.844727,1684.993652 
	C898.929932,1684.663086 882.010559,1684.478271 865.101624,1683.955566 
	C850.427795,1683.501831 835.762329,1682.732544 821.099731,1681.975586 
	C810.425720,1681.424561 799.752075,1680.797485 789.096680,1679.968750 
	C773.583130,1678.762085 758.089355,1677.304077 742.580811,1676.029785 
	C733.419556,1675.276978 724.230225,1674.837891 715.082275,1673.958862 
	C703.065125,1672.804077 691.079651,1671.323364 679.073975,1670.044922 
	C672.083557,1669.300781 665.064758,1668.806763 658.086487,1667.969238 
	C648.074280,1666.767700 638.091309,1665.325195 628.088562,1664.042236 
	C619.849304,1662.985474 611.589722,1662.083252 603.356445,1660.983032 
	C591.116150,1659.347412 578.855408,1657.817383 566.669495,1655.835693 
	C554.229004,1653.812622 541.806213,1651.588013 529.485474,1648.940674 
	C501.616241,1642.952393 473.661835,1637.253418 446.038910,1630.263672 
	C427.423309,1625.553223 409.150116,1619.305054 391.021759,1612.901245 
	C369.714355,1605.374390 349.368683,1595.652222 331.786041,1581.140747 
	C323.236450,1574.084717 316.031097,1565.293335 315.405090,1553.917847 
	C315.065582,1547.748291 318.610870,1541.364990 320.680237,1534.822754 
z"/>
<path fill="#000000" opacity="1.000000" stroke="none" 
	d="
M1068.023315,1392.018433 
	C1076.371216,1368.728027 1084.401123,1345.736450 1093.140991,1323.018066 
	C1097.972168,1310.459839 1103.898804,1298.315430 1109.603271,1286.111328 
	C1110.280273,1284.663086 1112.681763,1283.130127 1114.273682,1283.140625 
	C1127.691895,1283.228882 1141.112183,1283.543701 1154.522949,1284.035156 
	C1168.530273,1284.548706 1182.532227,1285.249390 1196.528076,1286.021973 
	C1212.953247,1286.928711 1229.375488,1287.906250 1245.786865,1289.032715 
	C1258.050659,1289.874390 1270.299194,1290.953857 1282.547119,1292.012817 
	C1297.388306,1293.295898 1312.234619,1294.542603 1327.055176,1296.037598 
	C1341.987671,1297.543823 1356.923096,1299.096313 1371.799805,1301.062622 
	C1389.988159,1303.466431 1408.122192,1306.287598 1426.270142,1308.991455 
	C1443.916870,1311.620483 1461.593018,1314.085449 1479.179321,1317.075195 
	C1494.941284,1319.754883 1510.722534,1322.523926 1526.275879,1326.185303 
	C1558.317139,1333.727661 1590.287476,1341.643555 1621.255005,1353.011353 
	C1642.425293,1360.782715 1663.168823,1369.630859 1681.286987,1383.270264 
	C1687.668213,1388.074097 1693.579346,1394.291626 1697.761475,1401.063843 
	C1706.482666,1415.186523 1703.395752,1426.306519 1692.660522,1438.792847 
	C1683.922852,1448.955444 1672.466797,1455.596802 1661.108398,1462.294922 
	C1660.316772,1462.761719 1659.020386,1462.667358 1658.033936,1462.466064 
	C1637.807739,1458.338135 1617.623169,1453.999390 1597.365845,1450.032349 
	C1579.277954,1446.489990 1561.144409,1443.154785 1542.968262,1440.101196 
	C1532.545532,1438.350220 1521.981323,1437.458984 1511.511475,1435.966553 
	C1501.077637,1434.479370 1490.703125,1432.570801 1480.262329,1431.141235 
	C1473.139282,1430.165771 1465.935181,1429.798950 1458.788574,1428.975464 
	C1448.274048,1427.763916 1437.787354,1426.308228 1427.271606,1425.108276 
	C1419.957764,1424.273438 1412.609863,1423.742920 1405.286255,1422.988770 
	C1392.780273,1421.701416 1380.283936,1420.317871 1367.777588,1419.033203 
	C1363.537109,1418.597534 1359.282104,1418.283203 1355.027588,1418.009155 
	C1339.109741,1416.984131 1323.188843,1416.004883 1307.269897,1414.996338 
	C1296.933594,1414.341553 1286.600220,1413.641479 1276.262817,1413.006470 
	C1264.928955,1412.310181 1253.594727,1411.612793 1242.255615,1411.012207 
	C1228.590210,1410.288330 1214.922607,1409.586792 1201.250000,1409.019409 
	C1183.252441,1408.272461 1165.248169,1407.684937 1147.248291,1406.988770 
	C1140.161865,1406.714722 1133.081177,1406.090454 1125.995361,1406.045898 
	C1105.423462,1405.916504 1084.850342,1406.000000 1063.465210,1406.000000 
	C1065.284668,1400.557861 1066.643188,1396.494629 1068.023315,1392.018433 
z"/>
<path fill="#000000" opacity="1.000000" stroke="none" 
	d="
M623.035400,1422.000000 
	C611.401978,1423.322021 600.243347,1424.704468 589.068787,1425.944458 
	C581.916260,1426.738281 574.726624,1427.203003 567.578186,1428.027954 
	C557.069336,1429.240601 546.582214,1430.642212 536.086121,1431.965210 
	C525.426941,1433.308838 514.747375,1434.510620 504.114471,1436.037476 
	C491.920044,1437.788574 479.761475,1439.793823 467.597870,1441.753784 
	C457.043640,1443.454590 446.480164,1445.114990 435.964203,1447.031250 
	C422.942108,1449.404541 409.935425,1451.882324 396.976562,1454.576904 
	C384.374542,1457.197388 371.892303,1460.432861 359.233002,1462.704468 
	C356.828522,1463.135986 353.778595,1460.441895 351.135468,1458.991089 
	C339.567169,1452.641479 329.147125,1444.788452 321.506104,1433.916626 
	C311.183380,1419.229004 313.763824,1405.696533 325.423157,1393.208618 
	C338.013275,1379.723511 353.692902,1370.546753 370.697021,1363.815552 
	C388.713074,1356.683716 406.690033,1349.227417 425.205170,1343.639648 
	C447.801147,1336.820435 470.820404,1331.259521 493.878784,1326.158936 
	C515.324463,1321.415039 537.025146,1317.776733 558.682556,1314.052734 
	C576.104065,1311.057007 593.617065,1308.581543 611.111084,1306.023071 
	C625.586609,1303.905884 640.073242,1301.837769 654.593567,1300.063843 
	C665.139221,1298.775513 675.755676,1298.076538 686.326843,1296.983032 
	C701.752136,1295.387329 717.161072,1293.633423 732.585999,1292.033813 
	C737.320862,1291.542725 742.082642,1291.291992 746.836731,1291.008057 
	C763.919739,1289.988037 781.005005,1289.005737 798.088806,1287.999512 
	C809.257263,1287.341675 820.419189,1286.547363 831.593933,1286.028564 
	C848.255432,1285.255127 864.933655,1284.822754 881.589600,1283.955933 
	C894.117615,1283.303955 894.056213,1283.127563 899.754639,1294.316040 
	C916.729858,1327.645386 931.837463,1361.774658 944.054016,1397.154053 
	C944.883728,1399.557251 946.066284,1401.838623 947.170959,1404.374634 
	C946.547485,1404.643188 946.155396,1404.955200 945.757324,1404.963013 
	C927.343872,1405.325317 908.929199,1405.632446 890.516052,1406.009155 
	C876.599976,1406.293945 862.684448,1406.619629 848.770996,1407.011841 
	C840.018860,1407.258423 831.268921,1407.614502 822.521790,1408.005859 
	C808.519470,1408.632446 794.518188,1409.288940 780.520386,1410.008301 
	C768.683044,1410.616455 756.846375,1411.256714 745.018127,1412.018799 
	C730.761108,1412.937256 716.510376,1413.958740 702.262512,1415.011230 
	C689.505493,1415.953613 676.743408,1416.862183 664.006897,1418.037842 
	C651.489380,1419.193237 639.001770,1420.672974 626.498535,1421.985718 
	C625.510559,1422.089478 624.502197,1421.999756 623.035400,1422.000000 
z"/>
<path fill="#000000" opacity="1.000000" stroke="none" 
	d="
M1230.113770,1544.000000 
	C1210.382446,1544.998657 1191.127441,1545.982788 1171.874268,1547.005737 
	C1166.786011,1547.276123 1161.708740,1547.794678 1156.618408,1547.973877 
	C1144.870239,1548.387573 1133.117310,1548.662476 1121.366211,1548.994629 
	C1109.615234,1549.326904 1097.865479,1549.719482 1086.112915,1549.979370 
	C1068.530151,1550.368286 1050.945312,1550.666870 1033.361328,1550.995850 
	C1031.713135,1551.026733 1030.063843,1551.000000 1027.784790,1551.000000 
	C1029.855957,1540.894043 1031.681274,1531.135986 1033.873779,1521.461060 
	C1038.819458,1499.638916 1043.761841,1477.812866 1049.072144,1456.077881 
	C1052.080322,1443.766113 1055.746826,1431.611938 1059.337280,1419.451782 
	C1059.651978,1418.386230 1061.616455,1417.094849 1062.803101,1417.106323 
	C1081.888428,1417.290039 1100.972900,1417.616943 1120.054932,1418.035034 
	C1125.477783,1418.153809 1130.888062,1418.764771 1136.310913,1418.982178 
	C1154.144897,1419.696899 1171.986206,1420.244751 1189.816650,1421.034668 
	C1200.827637,1421.522583 1211.836060,1422.181885 1222.824341,1423.036865 
	C1238.008789,1424.218628 1253.170776,1425.687744 1268.347778,1426.969238 
	C1273.590698,1427.411987 1278.855347,1427.595337 1284.100830,1428.012695 
	C1300.440308,1429.312866 1316.792725,1430.489746 1333.107178,1432.055298 
	C1347.880615,1433.472900 1362.636597,1435.142700 1377.353638,1437.059082 
	C1393.459717,1439.156616 1409.518677,1441.622314 1425.586426,1444.006348 
	C1440.990967,1446.291870 1456.460205,1448.252808 1471.756958,1451.124512 
	C1492.520752,1455.022705 1513.265137,1459.162231 1533.802368,1464.095093 
	C1558.002441,1469.908081 1581.972778,1476.677124 1606.036255,1483.056396 
	C1606.415894,1483.156982 1606.711304,1483.575806 1607.966675,1484.589722 
	C1595.411011,1488.211426 1583.734009,1491.968262 1571.856934,1494.919922 
	C1550.772583,1500.160156 1529.629639,1505.205322 1508.390259,1509.768921 
	C1493.379395,1512.994141 1478.177979,1515.342285 1463.044922,1517.986450 
	C1449.325073,1520.383667 1435.615845,1522.878418 1421.839600,1524.906250 
	C1410.394287,1526.591064 1398.846802,1527.570068 1387.365356,1529.024536 
	C1375.103271,1530.578003 1362.883911,1532.478271 1350.610596,1533.929077 
	C1342.477661,1534.890503 1334.270996,1535.209717 1326.118530,1536.027100 
	C1313.938232,1537.248291 1301.782227,1538.710083 1289.604370,1539.956299 
	C1284.703491,1540.458008 1279.773682,1540.688599 1274.854126,1540.994385 
	C1263.852295,1541.678467 1252.847046,1542.306030 1241.846802,1543.013428 
	C1238.089111,1543.255127 1234.342529,1543.666382 1230.113770,1544.000000 
z"/>
<path fill="#000000" opacity="1.000000" stroke="none" 
	d="
M974.999390,1496.997681 
	C979.403564,1515.052246 983.805176,1532.679077 988.380066,1551.000000 
	C982.457397,1551.000000 977.049255,1551.000000 971.641052,1551.000000 
	C961.476501,1551.000000 951.309998,1551.127197 941.147949,1550.967896 
	C928.396729,1550.768066 915.648132,1550.367432 902.900391,1549.988403 
	C893.648743,1549.713501 884.398560,1549.375488 875.150818,1548.990479 
	C859.982117,1548.358887 844.812561,1547.734497 829.649902,1546.976807 
	C818.642395,1546.426880 807.642273,1545.713989 796.644592,1544.987915 
	C782.221680,1544.035645 767.796997,1543.094482 753.386658,1541.973267 
	C737.707520,1540.753418 722.033630,1539.443115 706.376648,1537.968628 
	C690.113708,1536.437012 673.854614,1534.826050 657.629028,1532.946167 
	C642.278137,1531.167725 626.932312,1529.261230 611.657166,1526.932617 
	C589.234375,1523.514404 566.809204,1520.034302 544.508972,1515.910156 
	C520.085449,1511.393433 495.686279,1506.617554 471.495026,1501.011475 
	C451.489319,1496.375244 431.801056,1490.368652 411.978882,1484.944580 
	C411.598236,1484.840454 411.300629,1484.432983 410.233643,1483.589233 
	C422.447937,1479.932617 433.943542,1476.170776 445.615845,1473.074951 
	C461.466492,1468.870972 477.384918,1464.869385 493.400116,1461.354248 
	C507.909821,1458.169556 522.580566,1455.712036 537.194580,1453.011108 
	C550.077148,1450.630371 562.950745,1448.177979 575.882385,1446.092651 
	C585.993225,1444.462158 596.195923,1443.409668 606.341309,1441.982910 
	C617.594910,1440.400635 628.806885,1438.503418 640.079590,1437.081543 
	C650.127869,1435.814331 660.244385,1435.098755 670.312439,1433.975464 
	C681.159607,1432.765259 691.977966,1431.297119 702.824097,1430.076782 
	C707.552490,1429.544800 712.317810,1429.337158 717.067993,1429.004761 
	C726.733826,1428.328369 736.400574,1427.665039 746.067261,1427.000977 
	C760.653625,1425.998779 775.238159,1424.967651 789.827576,1424.011597 
	C800.825134,1423.291016 811.826111,1422.611206 822.831177,1422.017578 
	C836.328613,1421.289673 849.830017,1420.626099 863.333496,1420.020142 
	C872.579834,1419.605103 881.830933,1419.272827 891.083008,1419.015137 
	C904.997009,1418.627686 918.915466,1418.393433 932.828491,1417.975952 
	C937.584900,1417.833252 942.347656,1417.485474 947.075684,1416.950439 
	C950.571045,1416.554810 952.123047,1418.183472 953.007446,1421.265259 
	C959.999695,1445.629639 967.041138,1469.979858 974.082275,1494.330078 
	C974.305054,1495.100464 974.688293,1495.824463 974.999390,1496.997681 
z"/>
<path fill="#010101" opacity="1.000000" stroke="none" 
	d="
M810.851196,786.757202 
	C832.504822,715.306702 878.380859,667.975159 949.503967,646.293762 
	C987.419434,634.735474 1025.649902,636.257141 1063.649048,647.615906 
	C1077.140991,651.648865 1090.969482,654.698364 1104.803955,657.371399 
	C1110.192627,658.412598 1116.109009,657.726562 1121.625488,656.837219 
	C1127.934082,655.820068 1132.375000,652.013000 1134.073242,645.397339 
	C1134.405273,644.104126 1136.172974,643.179382 1137.278564,642.084717 
	C1137.660156,642.449463 1138.041748,642.814270 1138.423340,643.179016 
	C1138.423340,678.624512 1138.423340,714.069946 1138.423340,749.493530 
	C1134.273926,750.195435 1134.335693,750.191467 1134.022095,745.304993 
	C1132.242554,717.576050 1121.693359,694.193420 1099.935059,676.300232 
	C1085.297485,664.262817 1068.659546,655.973267 1050.443726,651.398254 
	C1037.264038,648.088135 1023.738464,645.186462 1010.228516,644.354126 
	C977.879700,642.361389 953.142761,657.182556 934.328491,682.531860 
	C918.673645,703.624329 910.427124,727.983154 905.050903,753.388062 
	C897.834473,787.488403 896.169434,822.017151 897.513611,856.760315 
	C898.682068,886.960327 901.984375,916.830261 910.948730,945.848022 
	C917.237793,966.205872 925.963379,985.355530 940.169983,1001.490417 
	C963.129028,1027.565796 991.838928,1037.509766 1025.941040,1030.473145 
	C1038.761475,1027.827759 1051.332886,1023.978333 1064.025513,1020.707825 
	C1067.204346,1019.888733 1068.290527,1018.185120 1068.271851,1014.681091 
	C1068.096924,982.020264 1068.169556,949.358154 1068.167847,916.696411 
	C1068.166138,884.525391 1052.575562,867.641418 1020.547852,865.295837 
	C1017.799988,865.094604 1015.907043,864.863708 1017.070435,861.230225 
	C1082.243652,861.230225 1147.512573,861.230225 1212.942993,861.230225 
	C1214.003052,864.134155 1213.121094,865.304932 1209.931396,865.392578 
	C1200.315186,865.657166 1191.101318,867.787354 1182.746094,872.662903 
	C1167.179321,881.746765 1161.354980,896.121521 1161.331055,913.396973 
	C1161.278442,951.557800 1161.312988,989.718750 1161.312134,1027.879639 
	C1161.312012,1029.698486 1161.312012,1031.517334 1161.312012,1034.689941 
	C1159.425293,1033.687866 1157.415161,1033.305664 1157.039062,1032.307617 
	C1154.843018,1026.479858 1149.979736,1024.015259 1144.711182,1022.311707 
	C1132.931885,1018.502625 1120.797119,1018.722107 1108.591553,1019.450623 
	C1088.783691,1020.632812 1070.337646,1027.682251 1051.273071,1032.114990 
	C986.818298,1047.101196 928.295349,1033.896240 877.035339,992.157227 
	C837.364258,959.854614 813.786865,917.593628 806.455200,866.899597 
	C802.592407,840.191040 803.407593,813.416870 810.851196,786.757202 
z"/>
</svg>