<?xml version="1.0" standalone="no"?>
<!DOCTYPE svg PUBLIC "-//W3C//DTD SVG 20010904//EN"
 "http://www.w3.org/TR/2001/REC-SVG-20010904/DTD/svg10.dtd">
<svg version="1.0" xmlns="http://www.w3.org/2000/svg"
 width="2000.000000pt" height="2000.000000pt" viewBox="0 0 2000.000000 2000.000000"
 preserveAspectRatio="xMidYMid meet">

<g transform="translate(0.000000,2000.000000) scale(0.100000,-0.100000)"
fill="#000000" stroke="none">
<path d="M9905 13619 c-408 -25 -801 -177 -1128 -438 -309 -246 -556 -618
-669 -1006 -58 -201 -71 -312 -65 -585 4 -214 8 -260 31 -365 114 -536 444
-1009 898 -1291 403 -249 876 -350 1333 -284 141 21 199 35 400 95 172 52 288
68 475 69 145 1 174 -2 237 -22 74 -23 143 -74 143 -106 0 -9 8 -16 20 -16 20
0 20 7 20 613 0 357 5 641 10 682 33 224 191 360 453 390 47 5 57 10 57 26 0
19 -19 19 -980 19 -956 0 -980 0 -980 -19 0 -16 10 -20 63 -26 241 -25 398
-155 436 -360 8 -42 11 -231 9 -619 l-3 -558 -50 -20 c-150 -59 -414 -110
-575 -110 -140 -1 -216 16 -342 75 -432 204 -678 738 -728 1582 -42 712 61
1331 286 1719 155 268 353 423 620 487 75 18 107 20 204 16 181 -10 400 -56
558 -118 418 -166 658 -466 689 -861 6 -74 7 -78 30 -78 l23 0 -2 538 c-3 514
-4 537 -21 537 -13 0 -23 -13 -32 -38 -19 -55 -51 -85 -109 -102 -112 -34
-287 -8 -583 86 -136 42 -326 78 -449 85 -60 3 -120 6 -134 8 -14 1 -79 -1
-145 -5z"/>
</g>
</svg>
